<?xml version="1.0" encoding="UTF-8"?>
<svg id="Layer_1" xmlns="http://www.w3.org/2000/svg" viewBox="0 0 24 24">
  <defs>
    <style>
      .cls-1 {
        stroke-dasharray: 2.4 4.8;
      }

      .cls-1, .cls-2, .cls-3 {
        fill: none;
        stroke: #000;
        stroke-linecap: round;
        stroke-linejoin: round;
      }

      .cls-3 {
        stroke-dasharray: 1.69 3.38;
      }
    </style>
  </defs>
  <g>
    <polyline class="cls-2" points="19.66 18.59 19.66 19.59 18.66 19.59"/>
    <line class="cls-3" x1="15.29" y1="19.59" x2="6.85" y2="19.59"/>
    <polyline class="cls-2" points="5.16 19.59 4.16 19.59 4.16 18.59"/>
    <line class="cls-1" x1="4.16" y1="13.79" x2="4.16" y2="8.99"/>
    <polyline class="cls-2" points="4.16 6.59 4.16 5.59 5.16 5.59"/>
    <line class="cls-3" x1="8.54" y1="5.59" x2="16.98" y2="5.59"/>
    <polyline class="cls-2" points="18.66 5.59 19.66 5.59 19.66 6.59"/>
    <line class="cls-1" x1="19.66" y1="11.39" x2="19.66" y2="16.19"/>
  </g>
  <path d="M11.46,14.59c-.09,0-.17-.03-.24-.08-.06-.06-.09-.16-.08-.31.03-.59.32-1.09.86-1.52.1-.08.21-.16.31-.24.11-.08.21-.16.3-.25.09-.09.17-.18.22-.28.06-.1.09-.21.09-.32,0-.23-.08-.41-.23-.55-.15-.14-.36-.22-.61-.23-.11,0-.22.02-.33.05-.11.03-.21.08-.3.14-.1.06-.19.13-.27.21s-.14.16-.19.25c-.13.21-.27.26-.44.17l-.84-.52c-.17-.1-.21-.25-.11-.46.24-.46.58-.82,1.01-1.09.43-.27.92-.41,1.47-.42.39,0,.74.05,1.04.17.3.12.56.29.77.5.21.21.36.46.47.75.11.29.16.6.16.92,0,.42-.11.79-.33,1.11-.22.32-.48.59-.79.82-.15.11-.3.24-.44.38-.14.14-.22.3-.23.47,0,.12-.04.2-.08.25-.05.04-.12.07-.22.07h-.98ZM11.9,17.02c-.25,0-.47-.09-.64-.26-.18-.18-.27-.39-.27-.65s.09-.47.27-.64c.18-.18.39-.27.64-.27s.47.09.64.27c.18.18.27.39.27.64s-.09.47-.27.65c-.18.18-.39.26-.64.26Z"/>
</svg>