<?xml version="1.0" encoding="UTF-8"?>
<svg xmlns="http://www.w3.org/2000/svg" viewBox="0 0 88 68">
  <defs>
    <style>
      .cls-1, .cls-2, .cls-3, .cls-4, .cls-5 {
        fill: #d6b177;
      }

      .cls-6 {
        isolation: isolate;
      }

      .cls-2, .cls-7, .cls-4, .cls-5 {
        mix-blend-mode: multiply;
      }

      .cls-8 {
        fill: #6a4a3a;
      }

      .cls-3 {
        mix-blend-mode: screen;
      }

      .cls-4 {
        opacity: .62;
      }

      .cls-5 {
        opacity: .64;
      }
    </style>
  </defs>
  <g class="cls-6">
    <g id="Layer_1">
      <g>
        <g>
          <path class="cls-1" d="M86.07,49.76c1.15-1.26.18-2.83-.83-3.77-1.43-1.32-3.31-1.96-5.13-2.46-1.19-.33-2.39-.56-3.6-.8-1.2-.23-2.41-.48-3.64-.46-.55,0-1.09.09-1.64.08-.32,0-.73,0-.91-.31-.12-.21-.1-.48-.18-.71-.14-.41-.51-.61-.86-.79-.57-.29-1.17-.53-1.78-.71-1.21-.34-2.38-.76-3.6-1.07-1.22-.31-2.45-.53-3.69-.7-2.5-.36-5.03-.61-7.54-.81-2.54-.2-5.09-.28-7.64-.23-1.1.02-2.2.05-3.3.1-1.15-.15-2.31-.28-3.48-.33-2.22-.08-4.44.06-6.64.25-2.02.18-4.09.42-6.07.91-.77.19-1.64.41-2.28.91-.56.43-.76.87-.42,1.44-4.77.19-9.68.86-14.16,2.63-2.06.81-4.08,1.94-5.66,3.55-1.27,1.3-2.38,3.42-.86,4.99.74.76,1.88,1.08,2.86,1.34,1.19.31,2.43.46,3.65.57,2.29.21,4.58.13,6.87.01-.51.16-1.01.37-1.48.64-.59.34-1.45.93-1.67,1.63-.24.76.5,1.29,1.07,1.61.85.48,1.82.79,2.74,1.07,2.11.63,4.27.79,6.45,1,2.05.2,4.12.31,6.18.18-1.25.57-2.22,1.9-1.41,3.29.48.83,1.46,1.32,2.29,1.71,1.1.52,2.27.92,3.43,1.29,1.18.37,2.4.57,3.62.73,1.19.16,2.39.3,3.58.38,2.6.18,5.22.12,7.81-.19,3.48-.42,6.93-1.1,10.21-2.38.69-.27,1.4-.56,2.03-.96.38-.24.83-.67.65-1.19-.17-.5-.6-.82-1.04-1.07.41.02.83,0,1.23,0,1.28-.04,2.56-.15,3.83-.22,2.56-.13,5.09-.45,7.6-1.01,2.44-.54,4.9-1.07,7.32-1.68,1.81-.46,4.13-1.13,5.05-3,.49-1,.04-2.02-.81-2.62-.8-.56-1.85-.81-2.84-.93.81-.14,1.61-.34,2.39-.57.86-.25,1.68-.65,2.3-1.33Z"/>
          <g class="cls-7">
            <path class="cls-1" d="M8.67,42.93c-1.1.43-2.19.96-3.2,1.6-1.03.98-1.86,2.26-1.78,3.73.2,3.46,5.15,3.58,7.65,3.1.02,0,.05.01.05.03.03,1.21,1.74,1.38,2.64,1.46.99.09,2.01,0,2.99.14.02,0,.03.02.03.03.15,1.97,3.03,1.98,4.47,2.07.04,0,.05.06,0,.07-.88.13-2.35.79-1.8,1.93.37.77,1.31,1.08,2.1,1.2,1.58.23,3.25-.09,4.77-.51.04-.01.06.04.03.07-.35.23-.78.6-.44,1.03.21.27.58.42.89.54.14.06.29.1.43.15.44,0,.88-.02,1.31-.05-.16.07-.31.16-.45.25.29.05.58.09.87.12,2.34.25,4.83.05,7.05-.76.03,0,.05.02.04.04-.24.95,1.13,1.4,1.8,1.6,1.29.38,2.65.5,3.99.57,1.51.07,3.04.04,4.55-.11,1.29-.12,2.61-.31,3.84-.75.61-.22,1.72-.67,1.58-1.5,0-.02,0-.05.03-.05.57,0,1.14-.04,1.71-.07,1.7-.11,3.41-.27,5.08-.64.61-.13,3.14-.63,2.39-1.73-.02-.03.01-.06.04-.05,1.37.52,2.96.37,4.38.15,1.41-.22,2.81-.59,4.14-1.11.03-.01.05.02.04.04-.14.81,1.45.86,1.92.88,2.58.13,5.31-.4,7.75-1.21,1.11-.37,4.58-1.64,3.14-3.28-.43-.12-.88-.2-1.32-.25.81-.14,1.61-.34,2.39-.57.86-.25,1.68-.65,2.3-1.33,1.15-1.26.18-2.83-.83-3.77-1.43-1.32-3.31-1.96-5.13-2.46-1.19-.33-2.39-.56-3.6-.8-1.2-.23-2.41-.48-3.64-.46-.55,0-1.09.09-1.64.08-.32,0-.73,0-.91-.31-.12-.21-.1-.48-.18-.71-.14-.41-.51-.61-.86-.79-.57-.29-1.17-.53-1.78-.71-1.21-.34-2.38-.76-3.6-1.07-1.22-.31-2.45-.53-3.69-.7-2.5-.36-5.03-.61-7.54-.81-2.54-.2-5.09-.28-7.64-.23-1.1.02-2.2.05-3.3.1-1.15-.15-2.31-.28-3.48-.33-2.22-.08-4.44.06-6.64.25-2.02.18-4.09.42-6.07.91-.77.19-1.64.41-2.28.91-.56.43-.76.87-.42,1.44-4.77.19-9.68.86-14.16,2.63Z"/>
          </g>
          <g>
            <g>
              <path class="cls-2" d="M70.29,51.09c-.46-.65-.99-.91-1.6-.95-.82-.15-1.77-.02-2.49.42-.82.5-1.64,1.06-2.11,2.01-.36.73.48,1.13.91,1.37,1.36.75,4.09.28,5.12-1.05.42-.54.61-1.18.17-1.79Z"/>
              <path class="cls-2" d="M68.35,51.54c-.24-.34-.52-.47-.83-.5-.42-.08-.92-.01-1.29.22-.42.26-.85.55-1.1,1.04-.19.38.25.59.47.71.7.39,2.12.15,2.66-.54.22-.28.32-.61.09-.93Z"/>
            </g>
            <g>
              <g>
                <path class="cls-2" d="M75.21,50.63c-.21-.22-.46-.32-.74-.33-.38-.05-.82,0-1.15.14-.38.17-.76.37-.98.7-.17.25.22.39.42.48.63.26,1.89.1,2.37-.36.19-.19.28-.41.08-.62Z"/>
                <path class="cls-2" d="M74.31,50.79c-.11-.12-.24-.16-.38-.17-.2-.03-.43,0-.6.08-.2.09-.4.19-.51.36-.09.13.11.2.22.25.33.14.98.05,1.23-.19.1-.1.15-.21.04-.32Z"/>
              </g>
              <g>
                <path class="cls-2" d="M79.72,51.52c-.15-.16-.33-.23-.53-.24-.27-.04-.59,0-.83.1-.27.12-.55.27-.7.5-.12.18.16.28.3.34.45.19,1.36.07,1.71-.26.14-.13.2-.29.06-.45Z"/>
                <path class="cls-2" d="M76.68,50.19c-.08-.08-.17-.12-.28-.13-.14-.02-.31,0-.43.05-.14.07-.29.14-.37.26-.06.1.08.15.16.18.24.1.71.04.89-.14.07-.07.11-.15.03-.24Z"/>
              </g>
            </g>
          </g>
          <g>
            <g>
              <path class="cls-2" d="M41.53,61.91c-.25-.36-.55-.5-.88-.52-.45-.08-.97-.01-1.37.23-.45.27-.9.58-1.16,1.1-.2.4.26.62.5.75.74.41,2.24.16,2.81-.57.23-.29.34-.65.09-.98Z"/>
              <path class="cls-2" d="M40.47,62.15c-.13-.18-.28-.26-.46-.27-.23-.04-.51,0-.71.12-.23.14-.47.3-.6.57-.1.21.14.32.26.39.39.22,1.17.08,1.46-.3.12-.15.17-.34.05-.51Z"/>
            </g>
            <g>
              <g>
                <path class="cls-2" d="M46.34,61.91c-.21-.23-.46-.32-.74-.33-.38-.05-.82,0-1.15.14-.38.17-.76.37-.98.7-.17.25.22.39.42.48.63.26,1.89.1,2.37-.36.19-.19.28-.41.08-.62Z"/>
                <path class="cls-2" d="M45.45,62.06c-.11-.12-.24-.16-.38-.17-.2-.03-.43,0-.6.08-.2.09-.4.19-.51.36-.09.13.11.2.22.25.33.14.98.05,1.23-.19.1-.1.15-.21.04-.32Z"/>
              </g>
              <g>
                <path class="cls-2" d="M50.86,62.8c-.15-.16-.33-.23-.53-.24-.27-.04-.59,0-.83.1-.27.12-.55.27-.7.5-.12.18.16.28.3.34.45.19,1.36.07,1.71-.26.14-.13.2-.3.06-.45Z"/>
                <path class="cls-2" d="M47.82,61.46c-.08-.08-.17-.12-.28-.13-.14-.02-.31,0-.43.05-.14.07-.29.14-.37.26-.06.1.08.15.16.18.24.1.71.04.89-.14.07-.07.11-.15.03-.24Z"/>
              </g>
            </g>
          </g>
          <g>
            <g>
              <path class="cls-2" d="M19.47,55.32c-.25-.36-.55-.5-.88-.52-.45-.08-.97-.01-1.37.23-.45.27-.9.58-1.16,1.1-.2.4.26.62.5.75.74.41,2.24.16,2.81-.57.23-.29.34-.65.1-.98Z"/>
              <path class="cls-2" d="M18.41,55.56c-.13-.19-.28-.26-.46-.27-.23-.04-.51,0-.71.12-.23.14-.47.3-.6.57-.1.21.14.32.26.39.39.22,1.17.08,1.46-.3.12-.15.17-.34.05-.51Z"/>
            </g>
            <g>
              <g>
                <path class="cls-2" d="M24.28,55.32c-.21-.23-.46-.32-.74-.33-.38-.05-.82,0-1.15.15-.38.17-.76.37-.98.7-.17.25.22.39.42.48.63.26,1.89.1,2.37-.36.19-.19.28-.41.08-.62Z"/>
                <path class="cls-2" d="M23.38,55.47c-.11-.12-.24-.16-.38-.17-.2-.03-.43,0-.6.07-.2.09-.4.19-.51.36-.09.13.11.2.22.25.33.14.98.05,1.23-.19.1-.1.15-.21.04-.32Z"/>
              </g>
              <g>
                <path class="cls-2" d="M28.8,56.21c-.15-.16-.33-.23-.53-.24-.27-.04-.59,0-.83.1-.27.12-.55.27-.7.5-.12.18.16.28.3.34.45.19,1.36.07,1.71-.26.14-.13.2-.3.06-.45Z"/>
                <path class="cls-2" d="M25.75,54.87c-.08-.08-.17-.12-.28-.13-.14-.02-.31,0-.44.05-.14.07-.29.14-.37.26-.06.1.08.15.16.18.24.1.71.04.89-.14.07-.07.11-.15.03-.24Z"/>
              </g>
            </g>
          </g>
          <g>
            <g>
              <path class="cls-2" d="M7.83,48.37c-.25-.36-.55-.5-.88-.52-.45-.08-.97-.01-1.37.23-.45.27-.9.58-1.16,1.1-.2.4.26.62.5.75.74.41,2.24.16,2.81-.57.23-.29.34-.65.1-.99Z"/>
              <path class="cls-2" d="M6.76,48.62c-.13-.18-.28-.26-.46-.27-.23-.04-.51,0-.71.12-.23.14-.47.3-.6.57-.1.21.14.32.26.39.39.22,1.17.08,1.46-.3.12-.15.17-.34.05-.51Z"/>
            </g>
            <g>
              <g>
                <path class="cls-2" d="M12.64,48.37c-.21-.23-.46-.32-.74-.33-.38-.05-.82,0-1.15.14-.38.17-.76.37-.98.7-.17.25.22.39.42.48.63.26,1.89.1,2.37-.36.19-.19.28-.41.08-.62Z"/>
                <path class="cls-2" d="M11.74,48.53c-.11-.12-.24-.16-.38-.17-.2-.03-.43,0-.6.08-.2.09-.4.19-.51.36-.09.13.11.2.22.25.33.14.98.05,1.23-.19.1-.1.15-.21.04-.32Z"/>
              </g>
              <g>
                <path class="cls-2" d="M17.15,49.26c-.15-.16-.33-.23-.53-.24-.27-.04-.59,0-.83.1-.27.12-.55.27-.7.5-.12.18.16.28.3.34.45.19,1.36.07,1.71-.26.14-.13.2-.3.06-.45Z"/>
                <path class="cls-2" d="M14.11,47.93c-.08-.08-.17-.12-.28-.13-.14-.02-.31,0-.43.05-.14.07-.29.14-.37.26-.06.1.08.15.16.18.24.1.71.04.89-.14.07-.07.11-.15.03-.24Z"/>
              </g>
            </g>
          </g>
          <g>
            <g>
              <path class="cls-2" d="M56.32,55.89c-.25-.36-.55-.5-.88-.52-.45-.08-.97-.01-1.37.23-.45.27-.9.58-1.16,1.1-.2.4.26.62.5.75.74.41,2.24.16,2.81-.57.23-.29.34-.65.1-.99Z"/>
              <path class="cls-2" d="M55.25,56.14c-.13-.18-.28-.26-.46-.27-.23-.04-.51,0-.71.12-.23.14-.47.3-.6.57-.1.21.14.32.26.39.39.22,1.17.08,1.46-.3.12-.15.17-.34.05-.51Z"/>
            </g>
            <g>
              <g>
                <path class="cls-2" d="M61.13,55.89c-.21-.23-.46-.32-.74-.33-.38-.05-.82,0-1.15.14-.38.17-.76.37-.98.7-.17.25.22.39.42.48.63.26,1.89.1,2.37-.36.19-.19.28-.41.08-.62Z"/>
                <path class="cls-2" d="M60.23,56.04c-.11-.12-.24-.16-.38-.17-.2-.03-.43,0-.6.08-.2.09-.4.19-.51.36-.09.13.11.2.22.25.33.14.98.05,1.23-.19.1-.1.15-.21.04-.32Z"/>
              </g>
              <g>
                <path class="cls-2" d="M65.64,56.78c-.15-.16-.33-.23-.53-.24-.27-.04-.59,0-.83.1-.27.12-.55.27-.7.5-.12.18.16.28.3.34.45.19,1.36.07,1.71-.26.14-.13.2-.3.06-.45Z"/>
                <path class="cls-2" d="M62.6,55.45c-.08-.08-.17-.12-.28-.13-.14-.02-.31,0-.43.05-.14.07-.29.14-.37.26-.06.1.08.15.16.18.24.1.71.04.89-.14.07-.07.11-.15.03-.24Z"/>
              </g>
            </g>
          </g>
        </g>
        <g>
          <path class="cls-8" d="M50.43,57.12c-.09-.45-.28-.88-.5-1.28-.21-.38-.45-.74-.72-1.08-.7-.87-1.69-1.46-2.77-1.74-1.08-.29-2.23-.29-3.32-.07-1.21.25-2.36.8-3.39,1.47-.56.36-1.09.77-1.57,1.24-.39.38-.76.81-1.06,1.26-.28.42-.56.95-.43,1.47.11.49.57.84.99,1.07.47.25.99.41,1.51.53.63.14,1.27.24,1.91.32.77.09,1.55.14,2.33.12.74-.02,1.48-.1,2.21-.21.73-.11,1.46-.26,2.17-.46.29-.09.58-.19.88-.28.28-.09.56-.19.83-.31.24-.11.47-.25.65-.44.04-.04.03-.08,0-.1.08-.09.15-.2.2-.31.17-.38.16-.8.08-1.2Z"/>
          <path class="cls-1" d="M49.95,58.74s-.05.04-.07.06c-.15.11-.33.2-.5.27-.26.11-.52.2-.79.29-.63.21-1.26.4-1.91.53-1.43.3-2.89.45-4.34.37-.75-.04-1.5-.13-2.24-.26-.51-.09-1.01-.18-1.5-.34-.48-.16-.98-.37-1.36-.72-.17-.16-.33-.36-.39-.59-.07-.24-.03-.49.05-.72.17-.5.52-.93.86-1.33.38-.45.8-.86,1.26-1.22.51-.41,1.07-.77,1.65-1.08.52-.28,1.07-.54,1.64-.72,1.03-.33,2.13-.44,3.21-.3,1.06.14,2.1.55,2.93,1.24.36.31.67.67.94,1.06.25.36.48.75.65,1.16.3.71.54,1.68-.09,2.29Z"/>
          <path class="cls-5" d="M50.04,56.45c-.17-.41-.4-.79-.65-1.16-.27-.39-.58-.76-.94-1.06-.82-.7-1.86-1.1-2.93-1.24-.91-.12-1.83-.06-2.72.16.06,0,.12,0,.19.01.39.04.77.13,1.12.31.34.18.62.43.85.75.23.32.39.68.53,1.05.07.18.12.37.18.56.05.18.09.36.14.54.1.37.19.74.19,1.12,0,.37-.09.76-.37,1.01-.27.24-.63.36-.98.44-.34.07-.7.11-1.05.14-1.03.1-2.08.08-3.09-.1-.39-.07-.78-.17-1.16-.29-.33-.1-.67-.22-.97-.4-.26-.16-.51-.37-.58-.68-.08-.32.04-.66.18-.95.17-.33.39-.62.63-.9.24-.28.49-.55.75-.8.16-.15.32-.3.48-.44-.27.18-.54.37-.79.57-.46.37-.88.78-1.26,1.22-.34.4-.69.83-.86,1.33-.08.23-.11.48-.05.72.06.23.22.43.39.59.38.35.87.56,1.36.72.49.16,1,.26,1.5.34.74.12,1.49.22,2.24.26,1.46.08,2.92-.08,4.34-.37.65-.14,1.28-.33,1.91-.53.27-.09.53-.18.79-.29.17-.07.34-.16.5-.27.02-.02.05-.04.07-.06.63-.61.4-1.58.09-2.29Z"/>
          <path class="cls-5" d="M50.04,56.45c-.17-.41-.4-.79-.65-1.16-.27-.39-.58-.76-.94-1.06-.59-.5-1.28-.85-2.02-1.06.22.29.42.6.59.92.44.81.77,1.7.93,2.61.07.37.14.76-.02,1.12-.15.33-.45.57-.77.74-.66.36-1.42.5-2.15.65-.48.1-.97.17-1.47.23-.64.08-1.28.12-1.92.14-.67.01-1.34-.01-2-.11-.58-.09-1.16-.23-1.68-.51-.43-.24-.81-.59-.98-1.06-.03-.08-.05-.16-.07-.24-.08.23-.11.47-.04.71.06.23.22.43.39.59.38.35.87.56,1.36.72.49.16,1,.26,1.5.34.74.12,1.49.22,2.24.26,1.46.08,2.92-.08,4.34-.37.65-.14,1.28-.33,1.91-.53.27-.09.53-.18.79-.29.17-.07.34-.16.5-.27.02-.02.05-.04.07-.06.63-.61.4-1.58.09-2.29Z"/>
        </g>
        <g>
          <g>
            <g>
              <path class="cls-8" d="M8.97,45.09c.14.25.35.46.59.63.48.34,1.07.5,1.65.6.61.1,1.22.12,1.83.13.8,0,1.59.03,2.39.02.46,0,.91-.02,1.37-.07.44-.05.88-.12,1.31-.2.43-.08.87-.16,1.3-.23.3-.05.6-.09.9-.14.56-.1,1.13-.22,1.63-.49.5-.27.88-.7,1.1-1.23.11-.28.18-.56.2-.85.38.04.77.08,1.15.11.88.07,1.76.1,2.64.09.88-.01,1.76-.07,2.63-.18.82-.11,1.6-.37,2.36-.67.39-.15.77-.31,1.15-.47.3-.12.6-.24.89-.39.29-.16.56-.35.76-.61.18-.24.3-.54.32-.84,0-.11,0-.21,0-.32.4.05.81.1,1.22.12,1.04.05,2.08-.04,3.06-.39.43-.15.87-.37,1.17-.73,0,0,0,0,0,0,.13.02.27.05.4.06.67.08,1.34.11,2.01.08.66-.03,1.33-.12,1.97-.3.56-.16,1.1-.39,1.53-.79.4-.37.67-.86.73-1.41.03-.29.01-.58-.08-.86-.09-.27-.25-.52-.44-.74-.4-.45-.92-.76-1.41-1.09-1.12-.75-2.19-1.61-3.45-2.13-.61-.25-1.27-.44-1.94-.42-.33.01-.67.09-.95.26-.02.01-.04.03-.06.04-.07-.14-.14-.28-.22-.41-.38-.66-.83-1.28-1.32-1.86-.24-.28-.49-.55-.78-.78-.3-.24-.65-.41-1.02-.51-.76-.22-1.56-.12-2.31.06-.76.19-1.51.44-2.22.76-.69.32-1.35.7-1.97,1.14-.31.22-.61.45-.91.69-.28.23-.56.47-.81.74-.48.52-.84,1.14-1.13,1.78-.04.09-.09.19-.13.29-.15-.1-.3-.18-.47-.25-1.12-.47-2.25.14-3.16.78-.45.31-.86.66-1.24,1.06-.4.41-.73.86-1.05,1.33-.18.27-.36.55-.51.84-.18-.12-.37-.23-.57-.33-.36-.18-.75-.3-1.15-.35-.35-.09-.7-.11-1.06-.05-.8.12-1.53.54-2.27.85-.38.16-.77.33-1.14.53-.37.2-.7.44-1.01.71-.31.27-.59.57-.89.86-.28.27-.56.54-.84.81-.55.57-1.07,1.18-1.4,1.91-.28.6-.53,1.26-.55,1.93,0,.32.05.65.2.93Z"/>
              <path class="cls-1" d="M23.08,41.91c-.24-.75-.66-1.43-1.1-2.08-.39-.58-.81-1.15-1.3-1.65-.29-.3-.59-.57-.93-.81.2-.4.47-.78.73-1.14.64-.87,1.44-1.6,2.35-2.19.47-.31.97-.59,1.52-.71.57-.12,1.14,0,1.62.31,0,0,0,0,0,0,.25.14.47.34.67.55.25.28.53.55.73.87.22.35.39.74.55,1.12.1.22.19.45.3.67-.18-.51-.39-1.01-.64-1.49-.34-.64-.8-1.29-1.4-1.73.39-.88.86-1.71,1.59-2.35,1.12-.97,2.36-1.81,3.74-2.37.34-.14.69-.26,1.05-.37.37-.12.75-.22,1.13-.3.76-.15,1.56-.16,2.28.17.64.3,1.11.87,1.54,1.42.34.44.67.89.95,1.37.2.24.32.52.42.81.29.65.5,1.34.64,2.03,0,.04.02.08.02.12.01.03.02.07.03.1.08.25.16.5.23.75-.01-.09-.02-.18-.03-.27-.05-.42-.13-.83-.23-1.23-.15-.59-.35-1.17-.61-1.72.02-.01.03-.02.05-.03.14-.09.3-.15.47-.19.33-.08.68-.08,1.02-.03.64.09,1.25.32,1.82.62,1.15.59,2.17,1.41,3.25,2.11.46.3.94.64,1.23,1.12.3.48.33,1.07.15,1.6-.37,1.12-1.56,1.59-2.62,1.81-1.22.25-2.45.22-3.68.1.15-.21.23-.44.31-.68-.08.12-.18.24-.28.34-.09.17-.21.33-.36.47-.35.3-.79.48-1.22.61-.49.15-.98.25-1.49.29-.83.07-1.66,0-2.48-.07-.09-.44-.33-.84-.59-1.19-.22-.28-.46-.53-.72-.76.04.05.07.11.11.16.09.13.18.25.28.37.17.2.33.41.47.64.09.15.17.32.22.49.06.16.1.33.1.51,0,.21-.02.42-.11.63-.26.6-.86.92-1.44,1.16-.7.29-1.4.59-2.12.84-.37.13-.75.24-1.13.33-.41.09-.82.14-1.24.18-.83.08-1.67.11-2.51.11-.84,0-1.68-.05-2.51-.13-.22-.02-.44-.04-.67-.07.01-.4-.05-.8-.18-1.2Z"/>
              <path class="cls-1" d="M9.16,43.17c.23-.68.55-1.31.98-1.88.47-.61,1.03-1.12,1.58-1.66.21-.2.42-.41.63-.61.17-.18.35-.36.54-.53.22-.19.46-.37.72-.49.07-.03.13-.06.2-.08,0-.01,0-.02.02-.03.82-.26,1.55-.73,2.37-.99.23-.07.46-.12.69-.15.01,0,.02,0,.02,0,.31-.05.62-.07.93-.04.06.01.11.03.17.04.02,0,.04,0,.05-.01.02,0,.04,0,.06,0,.42.08.81.24,1.17.45.11.05.21.1.3.17.07.05.13.1.18.16.56.43,1.05.97,1.48,1.51.44.57.85,1.18,1.2,1.81.36.66.65,1.4.64,2.17,0,.02,0,.04,0,.06,0,0,0,0-.01,0,0,.05,0,.1-.01.14,0,0,0,0,.01,0-.05.57-.29,1.14-.69,1.55-.38.39-.89.6-1.4.74-.56.15-1.13.22-1.7.31-.85.14-1.69.34-2.55.44-.88.1-1.77.08-2.66.07-.62,0-1.25,0-1.87-.03-.6-.03-1.21-.1-1.78-.28-.52-.17-1.07-.45-1.34-.95-.32-.58-.16-1.32.04-1.91Z"/>
              <path class="cls-3" d="M21.98,42.43c-.22-.3-.39-.63-.53-.98-.14-.34-.24-.69-.35-1.04-.09-.3-.2-.59-.32-.88.21.32.4.65.57,1,.29.6.49,1.24.63,1.9Z"/>
              <path class="cls-3" d="M44.3,34.01c.59.4,1.14.87,1.61,1.4-.34-.2-.69-.38-1.03-.58-.18-.11-.36-.23-.54-.35-.17-.13-.34-.27-.5-.4-.32-.26-.63-.51-.96-.76-.21-.16-.41-.31-.63-.45.01,0,.02.01.03.02.69.34,1.38.7,2.02,1.14Z"/>
              <path class="cls-3" d="M38.23,31.64c.3.52.52,1.09.72,1.65.21.58.38,1.17.56,1.75.17.55.34,1.11.37,1.68-.02-.03-.04-.05-.06-.08-.35-.47-.51-1.04-.76-1.56-.31-.66-.57-1.35-.82-2.04-.19-.53-.36-1.07-.55-1.6-.15-.42-.31-.84-.51-1.25.04.04.07.08.11.12.36.41.68.85.95,1.32Z"/>
              <path class="cls-3" d="M32.97,38.09c.49.43.91.95,1.2,1.53-.26-.23-.53-.45-.79-.68-.26-.22-.52-.45-.77-.69-.21-.21-.42-.43-.64-.63-.26-.25-.53-.47-.83-.66,0,0,.01,0,.02,0,.65.29,1.28.65,1.82,1.12Z"/>
              <path class="cls-3" d="M27.88,37.63c-.22-.26-.4-.55-.55-.85-.08-.15-.15-.31-.22-.47-.05-.13-.11-.26-.15-.4-.05-.17-.06-.35-.09-.53l-.02-.14c.24.34.46.7.64,1.08.19.41.34.85.38,1.3Z"/>
            </g>
            <path class="cls-4" d="M8.97,45.09c.14.25.35.46.59.63.48.34,1.07.5,1.65.6.61.1,1.22.12,1.83.13.8,0,1.59.03,2.39.02.46,0,.91-.02,1.37-.07.44-.05.88-.12,1.31-.2.43-.08.87-.16,1.3-.23.3-.05.6-.09.9-.14.56-.1,1.13-.22,1.63-.49.5-.27.88-.7,1.1-1.23.11-.28.18-.56.2-.85.38.04.77.08,1.15.11.88.07,1.76.1,2.64.09.88-.01,1.76-.07,2.63-.18.82-.11,1.6-.37,2.36-.67.39-.15.77-.31,1.15-.47.3-.12.6-.24.89-.39.29-.16.56-.35.76-.61.18-.24.3-.54.32-.84,0-.11,0-.21,0-.32.4.05.81.1,1.22.12,1.04.05,2.08-.04,3.06-.39.43-.15.87-.37,1.17-.73,0,0,0,0,0,0,.13.02.27.05.4.06.67.08,1.34.11,2.01.08.66-.03,1.33-.12,1.97-.3.56-.16,1.1-.39,1.53-.79.4-.37.67-.86.73-1.41.03-.29.01-.58-.08-.86-.09-.27-.25-.52-.44-.74-.4-.45-.92-.76-1.41-1.09-1.12-.75-2.19-1.61-3.45-2.13-.61-.25-1.27-.44-1.94-.42-.33.01-.67.09-.95.26-.02.01-.04.03-.06.04-.07-.14-.14-.28-.22-.41-.38-.66-.83-1.28-1.32-1.86-.24-.28-.49-.55-.78-.78-.3-.24-.65-.41-1.02-.51-.76-.22-1.56-.12-2.31.06-.76.19-1.51.44-2.22.76-.69.32-1.35.7-1.97,1.14-.31.22-.61.45-.91.69-.28.23-.56.47-.81.74-.48.52-.84,1.14-1.13,1.78-.04.09-.09.19-.13.29-.15-.1-.3-.18-.47-.25-1.12-.47-2.25.14-3.16.78-.45.31-.86.66-1.24,1.06-.4.41-.73.86-1.05,1.33-.18.27-.36.55-.51.84-.18-.12-.37-.23-.57-.33-.36-.18-.75-.3-1.15-.35-.35-.09-.7-.11-1.06-.05-.8.12-1.53.54-2.27.85-.38.16-.77.33-1.14.53-.37.2-.7.44-1.01.71-.31.27-.59.57-.89.86-.28.27-.56.54-.84.81-.55.57-1.07,1.18-1.4,1.91-.28.6-.53,1.26-.55,1.93,0,.32.05.65.2.93ZM40.45,33.64c-.15-.39-.27-.79-.4-1.18-.04-.11-.08-.24-.08-.36,0-.08.03-.15.1-.18.09-.04.21-.03.31-.01.17.03.34.07.51.12.35.1.7.22,1.04.37.25.11.48.23.71.37.19.09.38.18.57.27.39.2.78.42,1.14.66.27.18.52.39.77.58.23.18.47.36.68.57.2.19.4.41.5.67.09.23.08.48-.07.68-.22.31-.53.55-.85.75-.33.2-.69.38-1.07.48-.34.09-.69.09-1.02-.02-.33-.12-.62-.33-.87-.57-.3-.29-.56-.62-.8-.95-.49-.69-.88-1.45-1.18-2.24ZM34.15,36.54c-.44-.22-.87-.48-1.21-.83-.17-.18-.31-.38-.42-.6-.1-.22-.16-.46-.21-.69-.1-.47-.14-.96-.13-1.45,0-.49.07-.98.19-1.46.12-.47.29-.93.52-1.35.23-.42.52-.81.87-1.14.37-.35.87-.71,1.41-.66.25.02.49.15.7.28.21.13.41.29.58.46.02.02.04.04.05.06.18.13.36.27.52.42.34.31.64.67.9,1.06.27.39.51.81.71,1.24.2.42.38.85.54,1.29.17.49.33.98.46,1.48.09.31.16.63.23.95.03.15.05.29.09.44.02.11.05.23.07.34.05.24.09.48.06.72-.02.18-.1.33-.25.44-.14.1-.32.16-.49.19-.19.03-.39.04-.59.04-.17,0-.34-.02-.5-.03-.26-.03-.53-.05-.79-.09-.59-.09-1.17-.24-1.73-.42-.28-.09-.55-.2-.83-.31-.26-.11-.52-.24-.77-.37ZM28.95,36c.07-.05.16-.05.24-.04.26.02.52.13.76.23.28.11.55.24.82.37.1.05.19.09.29.14.13.06.26.11.4.18.26.12.51.26.76.41.08.04.16.08.23.13.39.23.74.5,1.07.81.14.13.28.28.41.43.13.15.25.32.34.5.08.17.13.35.1.54-.03.18-.13.35-.23.5-.22.33-.53.59-.85.82-.32.23-.67.42-1.03.6-.27.13-.55.25-.84.36-.32.11-.64.21-.98.25-.31.04-.64.03-.92-.12-.13-.07-.25-.17-.33-.3-.1-.14-.15-.31-.19-.48-.09-.39-.09-.8-.08-1.2.02-.4.06-.8.07-1.2,0-.21,0-.43,0-.64,0-.28-.01-.55-.03-.83-.01-.21-.02-.43-.05-.64-.02-.16-.05-.31-.06-.47,0-.11,0-.28.09-.35ZM23.13,35.69c.15-.28.36-.54.57-.78.21-.23.43-.45.67-.64.38-.28.86-.48,1.33-.34.36.1.64.36.85.66.3.3.58.64.81,1,.34.52.6,1.11.73,1.72.06.29.09.6.07.9-.01.19-.01.44-.19.56-.15.1-.38.05-.55.02-.17-.03-.34-.06-.5-.09-.18-.04-.35-.09-.53-.14-.68-.21-1.33-.5-1.96-.82-.41-.21-.86-.4-1.19-.74-.15-.15-.27-.34-.3-.55-.04-.26.07-.54.19-.77ZM14.95,41.78c.05-.36.13-.71.23-1.06.1-.35.23-.69.37-1.03.13-.32.29-.63.45-.93.14-.26.3-.51.48-.74.28-.37.66-.71,1.12-.82.36-.09.72-.02,1.05.12.46.16.89.4,1.27.7.4.31.77.67,1.08,1.06.32.4.59.83.82,1.29.22.45.39.92.5,1.4.1.43.14.89-.08,1.3-.21.4-.62.65-1,.87-.47.26-.96.46-1.48.61-.53.15-1.07.25-1.61.29-.52.03-1.05.01-1.57-.09-.33-.07-.65-.19-.93-.39-.23-.18-.42-.41-.54-.67-.13-.28-.2-.58-.22-.88-.03-.34-.01-.68.03-1.01Z"/>
            <g>
              <path class="cls-4" d="M39.64,31.76c-.01.15,0,.3.03.45.03.23.06.45.09.68.1.84.17,1.69.08,2.53-.1-.45-.16-.9-.22-1.35-.07-.45-.15-.9-.29-1.34-.07-.2-.14-.41-.22-.61-.06-.16-.12-.32-.18-.48.01,0,.02-.01.03-.02.24-.14.51-.22.79-.25-.07.12-.1.26-.11.4Z"/>
              <path class="cls-4" d="M35.5,28.07c-.5-.09-1.01-.06-1.5.04-.51.11-1.01.31-1.47.57-.47.26-.89.58-1.32.9-.81.6-1.66,1.18-2.32,1.96-.31.37-.59.79-.73,1.25-.15.49-.14,1-.09,1.5.09.97.35,2,0,2.94-.09-.39-.23-.76-.41-1.12-.05-.13-.1-.26-.15-.39-.19-.47-.44-.91-.75-1.32-.33-.43-.72-.82-1.19-1.1-.06-.03-.11-.07-.17-.09.07.02.14.05.2.07.16.07.32.16.47.25.04-.1.08-.19.13-.29.29-.64.65-1.26,1.13-1.78.25-.27.53-.5.81-.74.29-.24.6-.47.91-.69.62-.44,1.28-.82,1.97-1.14.71-.33,1.47-.57,2.22-.76.75-.19,1.54-.28,2.29-.07-.01,0-.03,0-.04,0Z"/>
              <path class="cls-4" d="M22.97,43.26c.02-.73-.07-1.48-.34-2.16-.24-.61-.62-1.14-1.09-1.58.28.16.57.32.85.5.3.19.56.43.82.67.47.45.91.95,1.44,1.34.6.43,1.32.63,2.03.75.38.06.77.11,1.15.16.39.06.76.15,1.15.19.38.05.78.06,1.16,0,.3-.05.59-.14.89-.17-.02,0-.05.02-.07.03-.42.13-.85.23-1.29.29-.87.11-1.75.17-2.63.18-.88.01-1.76-.02-2.64-.09-.38-.03-.77-.07-1.15-.11-.02.29-.09.57-.2.85-.06.15-.14.29-.22.43.08-.42.13-.84.14-1.27Z"/>
              <path class="cls-4" d="M8.77,44.16c.02-.67.27-1.32.55-1.93.34-.72.85-1.34,1.4-1.91.27-.28.56-.54.84-.81.3-.29.58-.58.89-.86.31-.28.65-.52,1.01-.71.37-.2.75-.36,1.14-.53.74-.32,1.47-.73,2.27-.85.29-.04.56-.04.84,0-.2.02-.41.05-.6.09-.33.06-.67.14-.99.25-.39.13-.76.3-1.11.5-.71.4-1.34.92-1.94,1.48-.57.53-1.11,1.11-1.53,1.77-.41.65-.72,1.41-.67,2.2.02.32.05.65.11.97.05.33.13.65.28.95.07.14.15.28.26.4.11.13.24.23.38.32.33.21.7.35,1.09.42.4.07.81.07,1.21.09.47.02.94.05,1.41.07.93.05,1.87.08,2.8-.02.1-.01.2-.02.3-.04.07.01.13.02.2.04-.27.05-.53.1-.79.15-.44.08-.87.16-1.31.2-.45.05-.91.07-1.37.07-.8,0-1.59,0-2.39-.02-.61,0-1.23-.03-1.83-.13-.58-.09-1.17-.26-1.65-.6-.23-.17-.45-.38-.59-.63-.16-.29-.21-.61-.2-.93Z"/>
            </g>
            <path class="cls-5" d="M8.97,45.09c.14.25.35.46.59.63.48.34,1.07.5,1.65.6.61.1,1.22.12,1.83.13.8,0,1.59.03,2.39.02.46,0,.91-.02,1.37-.07.44-.05.88-.12,1.31-.2.43-.08.87-.16,1.3-.23.3-.05.6-.09.9-.14.56-.1,1.13-.22,1.63-.49.5-.27.88-.7,1.1-1.23.11-.28.18-.56.2-.85.38.04.77.08,1.15.11.88.07,1.76.1,2.64.09.88-.01,1.76-.07,2.63-.18.82-.11,1.6-.37,2.36-.67.39-.15.77-.31,1.15-.47.3-.12.6-.24.89-.39.29-.16.56-.35.76-.61.18-.24.3-.54.32-.84,0-.11,0-.21,0-.32.4.05.81.1,1.22.12,1.04.05,2.08-.04,3.06-.39.43-.15.87-.37,1.17-.73,0,0,0,0,0,0,.13.02.27.05.4.06.67.08,1.34.11,2.01.08.66-.03,1.33-.12,1.97-.3.56-.16,1.1-.39,1.53-.79.4-.37.67-.86.73-1.41.03-.29.01-.58-.08-.86,0-.02-.01-.04-.02-.05.04.27.02.54-.08.8-.13.34-.41.6-.7.81-.31.22-.66.38-1.01.5-.72.25-1.5.35-2.26.39-.57.03-1.42.03-1.67-.61-.19-.49-.15-1.04-.32-1.55-.16-.47-.38-.93-.68-1.33.06.6.25,1.19.24,1.8,0,.51-.14,1.07-.46,1.49-.3.4-.74.58-1.22.68-.55.11-1.13.12-1.69.06-.55-.05-1.09-.17-1.6-.37-.45-.17-.88-.41-1.29-.67-.84-.53-1.6-1.17-2.44-1.71-.52-.33-1.08-.62-1.67-.79,1.08.55,2.04,1.33,2.88,2.2.24.25.48.51.7.78.22.26.43.54.58.85.14.29.23.62.18.95-.05.32-.22.59-.43.83-.38.43-.88.74-1.4.96-.53.23-1.09.4-1.66.53-.22.05-.43.1-.65.15-.23.05-.46.1-.69.14-.23.03-.47.06-.7.04-.19-.02-.4-.07-.54-.2-.17-.16-.25-.43-.28-.65-.04-.27,0-.54.04-.81.11-.57.32-1.14.25-1.73-.01-.1-.03-.2-.07-.3-.18.53-.2,1.09-.41,1.61-.2.49-.59.93-1.08,1.14-.23.1-.48.14-.73.12-.26-.03-.51-.13-.75-.24-.52-.24-.99-.59-1.42-.97-.42-.38-.81-.8-1.17-1.24-.37-.45-.74-.89-1.04-1.4-.3-.51-.51-1.07-.51-1.67,0-.3.05-.6.15-.88.07-.22.17-.44.28-.65.05-.1.1-.2.15-.3-.27.21-.52.44-.76.69-.4.41-.73.86-1.05,1.33-.18.27-.36.55-.51.84-.18-.12-.37-.23-.57-.33-.36-.18-.75-.3-1.15-.35-.35-.09-.7-.11-1.06-.05-.8.12-1.53.54-2.27.85-.38.16-.77.33-1.14.53-.37.2-.7.44-1.01.71-.31.27-.59.57-.89.86-.28.27-.56.54-.84.81-.55.57-1.07,1.18-1.4,1.91-.28.6-.53,1.26-.55,1.93,0,.32.05.65.2.93ZM12.02,42.31c0-.3.02-.62.09-.92.07-.28.23-.53.4-.75.18-.23.36-.45.56-.67.4-.44.84-.85,1.31-1.22.47-.37.96-.7,1.48-.99.26-.14.52-.28.79-.4.28-.12.55-.24.85-.29.56-.1,1.12.02,1.62.28.47.24.89.58,1.28.93.4.36.78.75,1.1,1.18.28.38.52.8.65,1.25.18.3.33.61.45.94.18.5.27,1.04.19,1.57-.03.24-.09.49-.21.7-.1.18-.25.32-.42.44-.36.26-.8.4-1.22.51-.51.13-1.02.24-1.53.34-.67.13-1.34.22-2.02.28-.69.06-1.38.08-2.08.03-.6-.04-1.19-.1-1.78-.22-.23-.04-.47-.1-.69-.18-.2-.07-.4-.17-.56-.32-.18-.18-.24-.42-.25-.67-.01-.29,0-.57-.01-.86,0-.32-.02-.64-.01-.96Z"/>
          </g>
          <g>
            <g>
              <path class="cls-8" d="M43.63,56.16c-.02-.67-.27-1.32-.55-1.93-.34-.72-.85-1.34-1.4-1.91-.27-.28-.56-.54-.84-.81-.3-.29-.58-.58-.89-.86-.31-.28-.65-.52-1.01-.71-.37-.2-.75-.36-1.14-.53-.74-.32-1.47-.73-2.27-.85-.36-.06-.71-.04-1.06.05-.4.05-.79.17-1.15.35-.2.1-.39.21-.57.33-.15-.29-.33-.57-.51-.84-.32-.47-.65-.92-1.05-1.33-.38-.39-.8-.74-1.24-1.06-.91-.64-2.04-1.25-3.16-.78-.16.07-.32.16-.47.25-.04-.1-.08-.19-.13-.29-.29-.64-.65-1.26-1.13-1.78-.25-.27-.53-.5-.81-.74-.29-.24-.6-.47-.91-.69-.62-.44-1.28-.82-1.97-1.14-.71-.33-1.47-.57-2.22-.76-.75-.19-1.55-.28-2.31-.06-.37.11-.72.28-1.02.51-.29.23-.54.5-.78.78-.49.58-.94,1.2-1.32,1.86-.08.14-.15.27-.22.41-.02-.01-.04-.03-.06-.04-.29-.17-.62-.24-.95-.26-.66-.03-1.33.16-1.94.42-1.25.52-2.33,1.38-3.45,2.13-.49.33-1.01.64-1.41,1.09-.19.22-.35.46-.44.74-.09.28-.11.57-.08.86.06.55.33,1.04.73,1.41.43.4.97.63,1.53.79.64.18,1.3.27,1.97.3.67.03,1.34,0,2.01-.08.13-.02.27-.04.4-.06,0,0,0,0,0,0,.3.36.73.57,1.17.73.98.35,2.02.44,3.06.39.41-.02.81-.06,1.22-.12-.01.1-.02.21,0,.32.02.3.13.6.32.84.2.26.47.46.76.61.29.15.59.27.89.39.39.16.77.32,1.15.47.76.3,1.55.56,2.36.67.87.11,1.75.17,2.63.18.88.01,1.76-.02,2.64-.09.38-.03.77-.07,1.15-.11.02.29.09.57.2.85.22.53.6.96,1.1,1.23.5.27,1.07.4,1.63.49.3.05.6.09.9.14.44.07.87.15,1.3.23.44.08.87.16,1.31.2.45.05.91.07,1.37.07.8,0,1.59,0,2.39-.02.61,0,1.23-.03,1.83-.13.58-.09,1.17-.26,1.65-.6.23-.17.45-.38.59-.63.16-.29.21-.61.2-.93Z"/>
              <path class="cls-1" d="M29.14,55.11c-.22.02-.44.05-.67.07-.84.08-1.67.12-2.51.13-.84,0-1.68-.03-2.51-.11-.42-.04-.83-.09-1.24-.18-.38-.08-.76-.2-1.13-.33-.71-.25-1.42-.55-2.12-.84-.57-.24-1.18-.56-1.44-1.16-.09-.21-.12-.42-.11-.63,0-.17.03-.34.1-.51.06-.17.13-.33.22-.49.13-.23.29-.44.47-.64.1-.12.19-.25.28-.37.04-.05.07-.11.11-.16-.26.23-.51.48-.72.76-.27.34-.51.75-.59,1.19-.83.08-1.65.14-2.48.07-.51-.04-1-.14-1.49-.29-.44-.13-.87-.31-1.22-.61-.15-.13-.27-.29-.36-.47-.1-.1-.2-.22-.28-.34.08.24.16.47.31.68-1.23.11-2.47.14-3.68-.1-1.06-.22-2.24-.69-2.62-1.81-.18-.53-.14-1.12.15-1.6.3-.48.77-.82,1.23-1.12,1.08-.7,2.1-1.52,3.25-2.11.57-.29,1.18-.52,1.82-.62.34-.05.69-.05,1.02.03.16.04.32.1.47.19.02.01.03.02.05.03-.26.55-.46,1.13-.61,1.72-.1.41-.18.82-.23,1.23-.01.09-.02.18-.03.27.07-.25.15-.5.23-.75.01-.03.02-.07.03-.1,0-.04.01-.08.02-.12.15-.69.35-1.38.64-2.03.1-.29.23-.57.42-.81.28-.48.61-.93.95-1.37.43-.55.9-1.12,1.54-1.42.72-.33,1.52-.32,2.28-.17.38.08.76.19,1.13.3.35.11.7.23,1.05.37,1.38.56,2.62,1.4,3.74,2.37.74.64,1.21,1.47,1.59,2.35-.6.44-1.05,1.09-1.4,1.73-.26.48-.46.98-.64,1.49.11-.22.2-.45.3-.67.16-.38.33-.77.55-1.12.2-.32.48-.59.73-.87.19-.21.41-.41.67-.55,0,0,0,0,0,0,.49-.32,1.05-.44,1.62-.31.55.12,1.05.41,1.52.71.9.59,1.71,1.32,2.35,2.19.26.36.53.73.73,1.14-.34.24-.65.52-.93.81-.49.51-.9,1.07-1.3,1.65-.44.65-.86,1.33-1.1,2.08-.12.39-.19.8-.18,1.2Z"/>
              <path class="cls-1" d="M43.28,57.07c-.27.5-.82.78-1.34.95-.57.18-1.18.25-1.78.28-.62.03-1.24.02-1.87.03-.89.01-1.78.03-2.66-.07-.86-.1-1.7-.3-2.55-.44-.57-.1-1.14-.17-1.7-.31-.51-.14-1.02-.35-1.4-.74-.4-.41-.63-.98-.69-1.55,0,0,0,0,.01,0,0-.05,0-.1-.01-.14,0,0,0,0-.01,0,0-.02,0-.04,0-.06-.01-.77.28-1.5.64-2.17.35-.63.76-1.24,1.2-1.81.42-.55.91-1.09,1.48-1.51.06-.06.12-.11.18-.16.09-.07.2-.12.3-.17.36-.21.75-.37,1.17-.45.02,0,.04,0,.06,0,.01.01.03.02.05.01.06-.02.11-.03.17-.04.31-.03.62-.02.93.04,0,0,.01,0,.02,0,.23.03.47.08.69.15.82.26,1.55.73,2.37.99.01,0,.02.02.02.03.07.02.14.05.2.08.26.13.5.31.72.49.19.16.37.34.54.53.21.2.42.4.63.61.55.53,1.11,1.05,1.58,1.66.44.57.75,1.2.98,1.88.2.59.35,1.33.04,1.91Z"/>
              <path class="cls-3" d="M30.42,54.43c.22-.3.39-.63.53-.98.14-.34.24-.69.35-1.04.09-.3.2-.59.32-.88-.21.32-.4.65-.57,1-.29.6-.49,1.24-.63,1.9Z"/>
              <path class="cls-3" d="M8.1,46.01c-.59.4-1.14.87-1.61,1.4.34-.2.69-.38,1.03-.58.18-.11.36-.23.54-.35.17-.13.34-.27.5-.4.32-.26.63-.51.96-.76.2-.16.41-.31.63-.45-.01,0-.02.01-.03.02-.69.34-1.38.7-2.02,1.14Z"/>
              <path class="cls-3" d="M14.17,43.64c-.3.52-.52,1.09-.72,1.65-.21.58-.38,1.17-.56,1.75-.17.55-.34,1.11-.37,1.68.02-.03.04-.05.06-.08.35-.47.51-1.04.76-1.56.31-.66.57-1.35.82-2.04.19-.53.36-1.07.55-1.6.15-.42.31-.84.51-1.25-.04.04-.07.08-.11.12-.36.41-.68.85-.95,1.32Z"/>
              <path class="cls-3" d="M19.43,50.09c-.49.43-.9.95-1.2,1.53.26-.23.53-.45.79-.68.26-.22.52-.45.77-.69.21-.21.42-.43.64-.63.26-.25.53-.47.83-.66,0,0-.01,0-.02,0-.65.29-1.28.65-1.82,1.12Z"/>
              <path class="cls-3" d="M24.52,49.63c.22-.26.4-.55.55-.85.08-.15.15-.31.22-.47.05-.13.11-.26.15-.4.05-.17.06-.35.09-.53,0-.05.01-.09.02-.14-.24.34-.46.7-.64,1.08-.19.41-.34.85-.38,1.3Z"/>
            </g>
            <path class="cls-4" d="M43.63,56.16c-.02-.67-.27-1.32-.55-1.93-.34-.72-.85-1.34-1.4-1.91-.27-.28-.56-.54-.84-.81-.3-.29-.58-.58-.89-.86-.31-.28-.65-.52-1.01-.71-.37-.2-.75-.36-1.14-.53-.74-.32-1.47-.73-2.27-.85-.36-.06-.71-.04-1.06.05-.4.05-.79.17-1.15.35-.2.1-.39.21-.57.33-.15-.29-.33-.57-.51-.84-.32-.47-.65-.92-1.05-1.33-.38-.39-.8-.74-1.24-1.06-.91-.64-2.04-1.25-3.16-.78-.16.07-.32.16-.47.25-.04-.1-.08-.19-.13-.29-.29-.64-.65-1.26-1.13-1.78-.25-.27-.53-.5-.81-.74-.29-.24-.6-.47-.91-.69-.62-.44-1.28-.82-1.97-1.14-.71-.33-1.47-.57-2.22-.76-.75-.19-1.55-.28-2.31-.06-.37.11-.72.28-1.02.51-.29.23-.54.5-.78.78-.49.58-.94,1.2-1.32,1.86-.08.14-.15.27-.22.41-.02-.01-.04-.03-.06-.04-.29-.17-.62-.24-.95-.26-.66-.03-1.33.16-1.94.42-1.25.52-2.33,1.38-3.45,2.13-.49.33-1.01.64-1.41,1.09-.19.22-.35.46-.44.74-.09.28-.11.57-.08.86.06.55.33,1.04.73,1.41.43.4.97.63,1.53.79.64.18,1.3.27,1.97.3.67.03,1.34,0,2.01-.08.13-.02.27-.04.4-.06,0,0,0,0,0,0,.3.36.73.57,1.17.73.98.35,2.02.44,3.06.39.41-.02.81-.06,1.22-.12-.01.1-.02.21,0,.32.02.3.13.6.32.84.2.26.47.46.76.61.29.15.59.27.89.39.39.16.77.32,1.15.47.76.3,1.55.56,2.36.67.87.11,1.75.17,2.63.18.88.01,1.76-.02,2.64-.09.38-.03.77-.07,1.15-.11.02.29.09.57.2.85.22.53.6.96,1.1,1.23.5.27,1.07.4,1.63.49.3.05.6.09.9.14.44.07.87.15,1.3.23.44.08.87.16,1.31.2.45.05.91.07,1.37.07.8,0,1.59,0,2.39-.02.61,0,1.23-.03,1.83-.13.58-.09,1.17-.26,1.65-.6.23-.17.45-.38.59-.63.16-.29.21-.61.2-.93ZM10.76,47.89c-.24.34-.5.66-.8.95-.25.24-.54.46-.87.57-.33.11-.69.11-1.02.02-.37-.1-.74-.28-1.07-.48-.32-.2-.63-.44-.85-.75-.15-.2-.17-.45-.07-.68.11-.26.3-.48.5-.67.21-.2.45-.39.68-.57.26-.2.51-.4.77-.58.36-.25.75-.46,1.14-.66.19-.1.38-.19.57-.27.23-.14.47-.27.71-.37.34-.15.69-.27,1.04-.37.17-.05.34-.1.51-.12.1-.01.21-.03.31.01.07.03.1.11.1.18,0,.12-.04.25-.08.36-.13.4-.25.79-.4,1.18-.31.79-.69,1.55-1.18,2.24ZM17.48,48.91c-.27.12-.55.22-.83.31-.56.19-1.14.33-1.73.42-.26.04-.53.06-.79.09-.17.02-.33.03-.5.03-.2,0-.39,0-.59-.04-.17-.03-.35-.08-.49-.19-.15-.11-.22-.26-.25-.44-.03-.24.01-.49.06-.72.02-.11.05-.23.07-.34.03-.15.06-.29.09-.44.07-.32.14-.63.23-.95.14-.5.29-.99.46-1.48.16-.44.33-.87.54-1.29.21-.43.44-.85.71-1.24.26-.38.56-.74.9-1.06.16-.15.34-.29.52-.42.02-.02.04-.04.05-.06.18-.17.37-.33.58-.46.21-.13.45-.26.7-.28.54-.05,1.04.3,1.41.66.35.33.64.72.87,1.14.23.43.41.88.52,1.35.12.48.18.97.19,1.46,0,.48-.03.97-.13,1.45-.05.24-.11.47-.21.69-.1.22-.25.42-.42.6-.34.36-.77.62-1.21.83-.26.13-.51.25-.77.37ZM23.54,48.34c0,.16-.04.31-.06.47-.03.21-.03.43-.05.64-.02.28-.03.55-.03.83,0,.21,0,.43,0,.64.01.4.06.8.07,1.2.02.4.02.81-.08,1.2-.04.16-.1.34-.19.48-.08.12-.2.23-.33.3-.28.15-.61.15-.92.12-.33-.04-.66-.13-.98-.25-.29-.1-.57-.22-.84-.36-.36-.17-.7-.37-1.03-.6-.32-.23-.62-.49-.85-.82-.1-.15-.21-.32-.23-.5-.03-.19.02-.37.1-.54.09-.18.21-.35.34-.5.13-.15.26-.29.41-.43.32-.31.68-.58,1.07-.81.08-.04.15-.09.23-.13.24-.15.5-.29.76-.41.13-.06.27-.12.4-.18.1-.05.19-.09.29-.14.27-.13.54-.26.82-.37.24-.1.5-.2.76-.23.08,0,.17,0,.24.04.1.07.1.24.09.35ZM29.46,48.46c-.03.21-.15.4-.3.55-.33.33-.78.53-1.19.74-.63.32-1.28.61-1.96.82-.17.05-.35.1-.53.14-.17.04-.34.06-.5.09-.17.03-.39.08-.55-.02-.18-.12-.18-.37-.19-.56-.02-.3.01-.6.07-.9.12-.61.39-1.2.73-1.72.23-.36.5-.69.81-1,.21-.3.49-.56.85-.66.47-.13.96.06,1.33.34.25.18.47.41.67.64.22.24.42.49.57.78.12.23.22.5.19.77ZM37.49,54.79c-.03.3-.09.6-.22.88-.12.26-.31.5-.54.67-.27.21-.59.33-.93.39-.51.1-1.04.13-1.57.09-.55-.04-1.09-.13-1.61-.29-.51-.15-1.01-.35-1.48-.61-.39-.22-.79-.47-1-.87-.22-.41-.18-.86-.08-1.3.11-.48.28-.95.5-1.4.22-.46.5-.89.82-1.29.32-.4.68-.76,1.08-1.06.39-.29.82-.53,1.27-.7.33-.14.69-.21,1.05-.12.46.11.84.45,1.12.82.18.23.34.49.48.74.17.3.32.61.46.93.14.34.27.68.37,1.03.1.35.18.7.23,1.06.05.34.06.68.03,1.01Z"/>
            <g>
              <path class="cls-4" d="M12.76,43.76c0,.15,0,.3-.03.45-.03.23-.06.45-.09.68-.1.84-.17,1.69-.08,2.53.1-.45.16-.9.22-1.35.07-.45.15-.9.29-1.34.07-.2.15-.41.22-.61.06-.16.12-.32.18-.48-.01,0-.02-.01-.03-.02-.24-.14-.51-.22-.79-.25.07.12.1.26.11.4Z"/>
              <path class="cls-4" d="M16.91,40.07c.5-.09,1.01-.06,1.5.04.51.11,1.01.31,1.47.57.47.26.89.58,1.32.9.81.6,1.66,1.18,2.32,1.96.31.37.59.79.73,1.25.15.49.14,1,.09,1.5-.09.97-.35,2,0,2.94.09-.39.23-.76.41-1.12.05-.13.1-.26.15-.39.19-.47.44-.91.75-1.32.33-.43.72-.82,1.19-1.1.06-.03.11-.07.17-.09-.07.02-.14.05-.2.07-.16.07-.32.16-.47.25-.04-.1-.08-.19-.13-.29-.29-.64-.65-1.26-1.13-1.78-.25-.27-.53-.5-.81-.74-.29-.24-.6-.47-.91-.69-.62-.44-1.28-.82-1.97-1.14-.71-.33-1.47-.57-2.22-.76-.75-.19-1.54-.28-2.29-.07.01,0,.03,0,.04,0Z"/>
              <path class="cls-4" d="M29.43,55.26c-.02-.73.07-1.48.34-2.16.24-.61.62-1.14,1.09-1.58-.28.16-.57.32-.85.5-.3.19-.56.43-.82.67-.47.45-.91.95-1.44,1.34-.6.43-1.32.63-2.03.75-.38.06-.77.11-1.15.16-.39.06-.76.15-1.15.19-.38.05-.78.06-1.16,0-.3-.05-.59-.14-.89-.17.02,0,.05.02.07.03.42.13.85.23,1.29.29.87.11,1.75.17,2.63.18.88.01,1.76-.02,2.64-.09.38-.03.77-.07,1.15-.11.02.29.09.57.2.85.06.15.14.29.23.43-.08-.42-.13-.84-.14-1.27Z"/>
              <path class="cls-4" d="M43.63,56.16c-.02-.67-.27-1.32-.55-1.93-.34-.72-.85-1.34-1.4-1.91-.27-.28-.56-.54-.84-.81-.3-.29-.58-.58-.89-.86-.31-.28-.65-.52-1.01-.71-.37-.2-.75-.36-1.14-.53-.74-.32-1.47-.73-2.27-.85-.29-.04-.56-.04-.84,0,.2.02.41.05.6.09.33.06.67.14.99.25.39.13.76.3,1.11.5.71.4,1.34.92,1.94,1.48.57.53,1.11,1.11,1.53,1.77.41.65.72,1.41.67,2.2-.02.32-.05.65-.1.97-.05.33-.13.65-.28.95-.07.14-.15.28-.26.4-.11.13-.24.23-.38.32-.33.21-.7.35-1.09.42-.4.07-.81.07-1.21.09-.47.02-.94.05-1.41.07-.93.05-1.87.08-2.8-.02-.1-.01-.2-.02-.3-.04-.07.01-.13.02-.2.04.27.05.53.1.79.15.44.08.87.16,1.31.2.45.05.91.07,1.37.07.8,0,1.59,0,2.39-.02.61,0,1.23-.03,1.83-.13.58-.09,1.17-.26,1.65-.6.23-.17.45-.38.59-.63.16-.29.21-.61.2-.93Z"/>
            </g>
            <path class="cls-5" d="M43.63,56.16c-.02-.67-.27-1.32-.55-1.93-.34-.72-.85-1.34-1.4-1.91-.27-.28-.56-.54-.84-.81-.3-.29-.58-.58-.89-.86-.31-.28-.65-.52-1.01-.71-.37-.2-.75-.36-1.14-.53-.74-.32-1.47-.73-2.27-.85-.36-.06-.71-.04-1.06.05-.4.05-.79.17-1.15.35-.2.1-.39.21-.57.33-.15-.29-.33-.57-.51-.84-.32-.47-.65-.92-1.05-1.33-.24-.25-.49-.47-.76-.69.05.1.1.2.15.3.1.21.2.43.28.65.09.28.14.58.15.88,0,.6-.21,1.16-.51,1.67-.3.5-.68.94-1.04,1.4-.36.44-.74.86-1.17,1.24-.43.38-.9.73-1.42.97-.24.11-.49.21-.75.24-.25.03-.5-.02-.73-.12-.49-.21-.88-.65-1.08-1.14-.21-.52-.24-1.08-.41-1.61-.03.1-.06.2-.07.3-.07.59.15,1.16.25,1.73.05.27.08.54.04.81-.03.22-.11.49-.28.65-.15.13-.35.18-.54.2-.23.02-.47,0-.7-.04-.23-.03-.46-.08-.69-.14-.22-.05-.43-.1-.65-.15-.57-.13-1.13-.29-1.66-.53-.52-.23-1.02-.53-1.4-.96-.21-.24-.38-.51-.43-.83-.05-.33.04-.65.18-.95.15-.31.36-.59.58-.85.22-.27.46-.53.7-.78.84-.87,1.8-1.65,2.89-2.2-.59.17-1.14.45-1.67.79-.84.53-1.6,1.18-2.44,1.71-.41.26-.84.49-1.29.67-.52.2-1.05.32-1.6.37-.56.06-1.14.05-1.69-.06-.48-.1-.92-.28-1.22-.68-.31-.41-.45-.98-.46-1.49,0-.61.19-1.19.24-1.8-.3.4-.52.86-.68,1.33-.17.5-.13,1.05-.32,1.55-.25.64-1.09.64-1.67.61-.76-.04-1.53-.14-2.26-.39-.36-.12-.71-.28-1.01-.5-.29-.21-.57-.47-.7-.81-.1-.26-.12-.53-.08-.8,0,.02-.01.04-.02.05-.09.28-.11.57-.08.86.06.55.33,1.04.73,1.41.43.4.97.63,1.53.79.64.18,1.3.27,1.97.3.67.03,1.34,0,2.01-.08.13-.02.27-.04.4-.06,0,0,0,0,0,0,.3.36.73.57,1.17.73.98.35,2.02.44,3.06.39.41-.02.81-.06,1.22-.12-.01.1-.02.21,0,.32.02.3.13.6.32.84.2.26.47.46.76.61.29.15.59.27.89.39.39.16.77.32,1.15.47.76.3,1.55.56,2.36.67.87.11,1.75.17,2.63.18.88.01,1.76-.02,2.64-.09.38-.03.77-.07,1.15-.11.02.29.09.57.2.85.22.53.6.96,1.1,1.23.5.27,1.07.4,1.63.49.3.05.6.09.9.14.44.07.87.15,1.3.23.44.08.87.16,1.31.2.45.05.91.07,1.37.07.8,0,1.59,0,2.39-.02.61,0,1.23-.03,1.83-.13.58-.09,1.17-.26,1.65-.6.23-.17.45-.38.59-.63.16-.29.21-.61.2-.93ZM40.37,55.27c0,.29,0,.57-.01.86-.01.25-.07.49-.25.67-.15.15-.36.25-.56.32-.22.08-.46.14-.69.18-.59.11-1.18.18-1.78.22-.69.04-1.38.02-2.08-.03-.68-.05-1.35-.15-2.02-.28-.51-.1-1.02-.21-1.53-.34-.42-.11-.86-.25-1.22-.51-.17-.12-.31-.27-.42-.44-.12-.21-.18-.46-.21-.7-.07-.53.01-1.07.19-1.57.12-.33.27-.64.45-.94.13-.45.37-.87.65-1.25.32-.43.7-.82,1.1-1.18.39-.35.81-.69,1.28-.93.5-.26,1.06-.38,1.62-.28.3.05.58.17.85.29.27.12.53.25.79.4.52.29,1.01.62,1.48.99.47.37.91.77,1.31,1.22.19.21.38.44.56.67.17.23.33.47.4.75.07.3.08.61.09.92,0,.32,0,.64-.01.96Z"/>
          </g>
          <g>
            <g>
              <path class="cls-8" d="M81.63,44.16c-.02-.67-.27-1.32-.55-1.93-.34-.72-.85-1.34-1.4-1.91-.27-.28-.56-.54-.84-.81-.3-.29-.58-.58-.89-.86-.31-.28-.65-.52-1.01-.71-.37-.2-.75-.36-1.14-.53-.74-.32-1.47-.73-2.27-.85-.36-.06-.71-.04-1.06.05-.4.05-.79.17-1.15.35-.2.1-.39.21-.57.33-.15-.29-.33-.57-.51-.84-.32-.47-.65-.92-1.05-1.33-.38-.39-.8-.74-1.24-1.06-.91-.64-2.04-1.25-3.16-.78-.16.07-.32.16-.47.25-.04-.1-.08-.19-.13-.29-.29-.64-.65-1.26-1.13-1.78-.25-.27-.53-.5-.81-.74-.29-.24-.6-.47-.91-.69-.62-.44-1.28-.82-1.97-1.14-.71-.33-1.47-.57-2.22-.76-.75-.19-1.55-.28-2.31-.06-.37.11-.72.28-1.02.51-.29.23-.54.5-.78.78-.49.58-.94,1.2-1.32,1.86-.08.14-.15.27-.22.41-.02-.01-.04-.03-.06-.04-.29-.17-.62-.24-.95-.26-.66-.03-1.33.16-1.94.42-1.25.52-2.33,1.38-3.45,2.13-.49.33-1.01.64-1.41,1.09-.19.22-.35.46-.44.74-.09.28-.11.57-.08.86.06.55.33,1.04.73,1.41.43.4.97.63,1.53.79.64.18,1.3.27,1.97.3.67.03,1.34,0,2.01-.08.13-.02.27-.04.4-.06,0,0,0,0,0,0,.3.36.73.57,1.17.73.98.35,2.02.44,3.06.39.41-.02.81-.06,1.22-.12-.01.1-.02.21,0,.32.02.3.13.6.32.84.2.26.47.46.76.61.29.15.59.27.89.39.39.16.77.32,1.15.47.76.3,1.55.56,2.36.67.87.11,1.75.17,2.63.18.88.01,1.76-.02,2.64-.09.38-.03.77-.07,1.15-.11.02.29.09.57.2.85.22.53.6.96,1.1,1.23.5.27,1.07.4,1.63.49.3.05.6.09.9.14.44.07.87.15,1.3.23.44.08.87.16,1.31.2.45.05.91.07,1.37.07.8,0,1.59,0,2.39-.02.61,0,1.23-.03,1.83-.13.58-.09,1.17-.26,1.65-.6.23-.17.45-.38.59-.63.16-.29.21-.61.2-.93Z"/>
              <path class="cls-1" d="M67.14,43.11c-.22.02-.44.05-.67.07-.84.08-1.67.12-2.51.13-.84,0-1.68-.03-2.51-.11-.42-.04-.83-.09-1.24-.18-.38-.08-.76-.2-1.13-.33-.71-.25-1.42-.55-2.12-.84-.57-.24-1.18-.56-1.44-1.16-.09-.21-.12-.42-.11-.63,0-.17.03-.34.1-.51.06-.17.13-.33.22-.49.13-.23.29-.44.47-.64.1-.12.19-.25.28-.37.04-.05.07-.11.11-.16-.26.23-.51.48-.72.76-.27.34-.51.75-.59,1.19-.83.08-1.65.14-2.48.07-.51-.04-1-.14-1.49-.29-.44-.13-.87-.31-1.22-.61-.15-.13-.27-.29-.36-.47-.1-.1-.2-.22-.28-.34.08.24.16.47.31.68-1.23.11-2.47.14-3.68-.1-1.06-.22-2.24-.69-2.62-1.81-.18-.53-.14-1.12.15-1.6.3-.48.77-.82,1.23-1.12,1.08-.7,2.1-1.52,3.25-2.11.57-.29,1.18-.52,1.82-.62.34-.05.69-.05,1.02.03.16.04.32.1.47.19.02.01.03.02.05.03-.26.55-.46,1.13-.61,1.72-.1.41-.18.82-.23,1.23-.01.09-.02.18-.03.27.07-.25.15-.5.23-.75.01-.03.02-.07.03-.1,0-.04.01-.08.02-.12.15-.69.35-1.38.64-2.03.1-.29.23-.57.42-.81.28-.48.61-.93.95-1.37.43-.55.9-1.12,1.54-1.42.72-.33,1.52-.32,2.28-.17.38.08.76.19,1.13.3.35.11.7.23,1.05.37,1.38.56,2.62,1.4,3.74,2.37.74.64,1.21,1.47,1.59,2.35-.6.44-1.05,1.09-1.4,1.73-.26.48-.46.98-.64,1.49.11-.22.2-.45.3-.67.16-.38.33-.77.55-1.12.2-.32.48-.59.73-.87.19-.21.41-.41.67-.55,0,0,0,0,0,0,.49-.32,1.05-.44,1.62-.31.55.12,1.05.41,1.52.71.9.59,1.71,1.32,2.35,2.19.26.36.53.73.73,1.14-.34.24-.65.52-.93.81-.49.51-.9,1.07-1.3,1.65-.44.65-.86,1.33-1.1,2.08-.12.39-.19.8-.18,1.2Z"/>
              <path class="cls-1" d="M81.28,45.07c-.27.5-.82.78-1.34.95-.57.18-1.18.25-1.78.28-.62.03-1.24.02-1.87.03-.89.01-1.78.03-2.66-.07-.86-.1-1.7-.3-2.55-.44-.57-.1-1.14-.17-1.7-.31-.51-.14-1.02-.35-1.4-.74-.4-.41-.63-.98-.69-1.55,0,0,0,0,.01,0,0-.05,0-.1-.01-.14,0,0,0,0-.01,0,0-.02,0-.04,0-.06-.01-.77.28-1.5.64-2.17.35-.63.76-1.24,1.2-1.81.42-.55.91-1.09,1.48-1.51.06-.06.12-.11.18-.16.09-.07.2-.12.3-.17.36-.21.75-.37,1.17-.45.02,0,.04,0,.06,0,.01.01.03.02.05.01.06-.02.11-.03.17-.04.31-.03.62-.02.93.04,0,0,.01,0,.02,0,.23.03.47.08.69.15.82.26,1.55.73,2.37.99.01,0,.02.02.02.03.07.02.14.05.2.08.26.13.5.31.72.49.19.16.37.34.54.53.21.2.42.4.63.61.55.53,1.11,1.05,1.58,1.66.44.57.75,1.2.98,1.88.2.59.35,1.33.04,1.91Z"/>
              <path class="cls-3" d="M68.42,42.43c.22-.3.39-.63.53-.98.14-.34.24-.69.35-1.04.09-.3.2-.59.32-.88-.21.32-.4.65-.57,1-.29.6-.49,1.24-.63,1.9Z"/>
              <path class="cls-3" d="M46.1,34.01c-.59.4-1.14.87-1.61,1.4.34-.2.69-.38,1.03-.58.18-.11.36-.23.54-.35.17-.13.34-.27.5-.4.32-.26.63-.51.96-.76.2-.16.41-.31.63-.45-.01,0-.02.01-.03.02-.69.34-1.38.7-2.02,1.14Z"/>
              <path class="cls-3" d="M52.17,31.64c-.3.52-.52,1.09-.72,1.65-.21.58-.38,1.17-.56,1.75-.17.55-.34,1.11-.37,1.68.02-.03.04-.05.06-.08.35-.47.51-1.04.76-1.56.31-.66.57-1.35.82-2.04.19-.53.36-1.07.55-1.6.15-.42.31-.84.51-1.25-.04.04-.07.08-.11.12-.36.41-.68.85-.95,1.32Z"/>
              <path class="cls-3" d="M57.43,38.09c-.49.43-.9.95-1.2,1.53.26-.23.53-.45.79-.68.26-.22.52-.45.77-.69.21-.21.42-.43.64-.63.26-.25.53-.47.83-.66,0,0-.01,0-.02,0-.65.29-1.28.65-1.82,1.12Z"/>
              <path class="cls-3" d="M62.52,37.63c.22-.26.4-.55.55-.85.08-.15.15-.31.22-.47.05-.13.11-.26.15-.4.05-.17.06-.35.09-.53,0-.05.01-.09.02-.14-.24.34-.46.7-.64,1.08-.19.41-.34.85-.38,1.3Z"/>
            </g>
            <path class="cls-4" d="M81.63,44.16c-.02-.67-.27-1.32-.55-1.93-.34-.72-.85-1.34-1.4-1.91-.27-.28-.56-.54-.84-.81-.3-.29-.58-.58-.89-.86-.31-.28-.65-.52-1.01-.71-.37-.2-.75-.36-1.14-.53-.74-.32-1.47-.73-2.27-.85-.36-.06-.71-.04-1.06.05-.4.05-.79.17-1.15.35-.2.1-.39.21-.57.33-.15-.29-.33-.57-.51-.84-.32-.47-.65-.92-1.05-1.33-.38-.39-.8-.74-1.24-1.06-.91-.64-2.04-1.25-3.16-.78-.16.07-.32.16-.47.25-.04-.1-.08-.19-.13-.29-.29-.64-.65-1.26-1.13-1.78-.25-.27-.53-.5-.81-.74-.29-.24-.6-.47-.91-.69-.62-.44-1.28-.82-1.97-1.14-.71-.33-1.47-.57-2.22-.76-.75-.19-1.55-.28-2.31-.06-.37.11-.72.28-1.02.51-.29.23-.54.5-.78.78-.49.58-.94,1.2-1.32,1.86-.08.14-.15.27-.22.41-.02-.01-.04-.03-.06-.04-.29-.17-.62-.24-.95-.26-.66-.03-1.33.16-1.94.42-1.25.52-2.33,1.38-3.45,2.13-.49.33-1.01.64-1.41,1.09-.19.22-.35.46-.44.74-.09.28-.11.57-.08.86.06.55.33,1.04.73,1.41.43.4.97.63,1.53.79.64.18,1.3.27,1.97.3.67.03,1.34,0,2.01-.08.13-.02.27-.04.4-.06,0,0,0,0,0,0,.3.36.73.57,1.17.73.98.35,2.02.44,3.06.39.41-.02.81-.06,1.22-.12-.01.1-.02.21,0,.32.02.3.13.6.32.84.2.26.47.46.76.61.29.15.59.27.89.39.39.16.77.32,1.15.47.76.3,1.55.56,2.36.67.87.11,1.75.17,2.63.18.88.01,1.76-.02,2.64-.09.38-.03.77-.07,1.15-.11.02.29.09.57.2.85.22.53.6.96,1.1,1.23.5.27,1.07.4,1.63.49.3.05.6.09.9.14.44.07.87.15,1.3.23.44.08.87.16,1.31.2.45.05.91.07,1.37.07.8,0,1.59,0,2.39-.02.61,0,1.23-.03,1.83-.13.58-.09,1.17-.26,1.65-.6.23-.17.45-.38.59-.63.16-.29.21-.61.2-.93ZM48.76,35.89c-.24.34-.5.66-.8.95-.25.24-.54.46-.87.57-.33.11-.69.11-1.02.02-.37-.1-.74-.28-1.07-.48-.32-.2-.63-.44-.85-.75-.15-.2-.17-.45-.07-.68.11-.26.3-.48.5-.67.21-.2.45-.39.68-.57.26-.2.51-.4.77-.58.36-.25.75-.46,1.14-.66.19-.1.38-.19.57-.27.23-.14.47-.27.71-.37.34-.15.69-.27,1.04-.37.17-.05.34-.1.51-.12.1-.01.21-.03.31.01.07.03.1.11.1.18,0,.12-.04.25-.08.36-.13.4-.25.79-.4,1.18-.31.79-.69,1.55-1.18,2.24ZM55.48,36.91c-.27.12-.55.22-.83.31-.56.19-1.14.33-1.73.42-.26.04-.53.06-.79.09-.17.02-.33.03-.5.03-.2,0-.39,0-.59-.04-.17-.03-.35-.08-.49-.19-.15-.11-.22-.26-.25-.44-.03-.24.01-.49.06-.72.02-.11.05-.23.07-.34.03-.15.06-.29.09-.44.07-.32.14-.63.23-.95.14-.5.29-.99.46-1.48.16-.44.33-.87.54-1.29.21-.43.44-.85.71-1.24.26-.38.56-.74.9-1.06.16-.15.34-.29.52-.42.02-.02.04-.04.05-.06.18-.17.37-.33.58-.46.21-.13.45-.26.7-.28.54-.05,1.04.3,1.41.66.35.33.64.72.87,1.14.23.43.41.88.52,1.35.12.48.18.97.19,1.46,0,.48-.03.97-.13,1.45-.05.24-.11.47-.21.69-.1.22-.25.42-.42.6-.34.36-.77.62-1.21.83-.26.13-.51.25-.77.37ZM61.54,36.34c0,.16-.04.31-.06.47-.03.21-.03.43-.05.64-.02.28-.03.55-.03.83,0,.21,0,.43,0,.64.01.4.06.8.07,1.2.02.4.02.81-.08,1.2-.04.16-.1.34-.19.48-.08.12-.2.23-.33.3-.28.15-.61.15-.92.12-.33-.04-.66-.13-.98-.25-.29-.1-.57-.22-.84-.36-.36-.17-.7-.37-1.03-.6-.32-.23-.62-.49-.85-.82-.1-.15-.21-.32-.23-.5-.03-.19.02-.37.1-.54.09-.18.21-.35.34-.5.13-.15.26-.29.41-.43.32-.31.68-.58,1.07-.81.08-.04.15-.09.23-.13.24-.15.5-.29.76-.41.13-.06.27-.12.4-.18.1-.05.19-.09.29-.14.27-.13.54-.26.82-.37.24-.1.5-.2.76-.23.08,0,.17,0,.24.04.1.07.1.24.09.35ZM67.46,36.46c-.03.21-.15.4-.3.55-.33.33-.78.53-1.19.74-.63.32-1.28.61-1.96.82-.17.05-.35.1-.53.14-.17.04-.34.06-.5.09-.17.03-.39.08-.55-.02-.18-.12-.18-.37-.19-.56-.02-.3.01-.6.07-.9.12-.61.39-1.2.73-1.72.23-.36.5-.69.81-1,.21-.3.49-.56.85-.66.47-.13.96.06,1.33.34.25.18.47.41.67.64.22.24.42.49.57.78.12.23.22.5.19.77ZM75.49,42.79c-.03.3-.09.6-.22.88-.12.26-.31.5-.54.67-.27.21-.59.33-.93.39-.51.1-1.04.13-1.57.09-.55-.04-1.09-.13-1.61-.29-.51-.15-1.01-.35-1.48-.61-.39-.22-.79-.47-1-.87-.22-.41-.18-.86-.08-1.3.11-.48.28-.95.5-1.4.22-.46.5-.89.82-1.29.32-.4.68-.76,1.08-1.06.39-.29.82-.53,1.27-.7.33-.14.69-.21,1.05-.12.46.11.84.45,1.12.82.18.23.34.49.48.74.17.3.32.61.46.93.14.34.27.68.37,1.03.1.35.18.7.23,1.06.05.34.06.68.03,1.01Z"/>
            <g>
              <path class="cls-4" d="M50.76,31.76c0,.15,0,.3-.03.45-.03.23-.06.45-.09.68-.1.84-.17,1.69-.08,2.53.1-.45.16-.9.22-1.35.07-.45.15-.9.29-1.34.07-.2.15-.41.22-.61.06-.16.12-.32.18-.48-.01,0-.02-.01-.03-.02-.24-.14-.51-.22-.79-.25.07.12.1.26.11.4Z"/>
              <path class="cls-4" d="M54.91,28.07c.5-.09,1.01-.06,1.5.04.51.11,1.01.31,1.47.57.47.26.89.58,1.32.9.81.6,1.66,1.18,2.32,1.96.31.37.59.79.73,1.25.15.49.14,1,.09,1.5-.09.97-.35,2,0,2.94.09-.39.23-.76.41-1.12.05-.13.1-.26.15-.39.19-.47.44-.91.75-1.32.33-.43.72-.82,1.19-1.1.06-.03.11-.07.17-.09-.07.02-.14.05-.2.07-.16.07-.32.16-.47.25-.04-.1-.08-.19-.13-.29-.29-.64-.65-1.26-1.13-1.78-.25-.27-.53-.5-.81-.74-.29-.24-.6-.47-.91-.69-.62-.44-1.28-.82-1.97-1.14-.71-.33-1.47-.57-2.22-.76-.75-.19-1.54-.28-2.29-.07.01,0,.03,0,.04,0Z"/>
              <path class="cls-4" d="M67.43,43.26c-.02-.73.07-1.48.34-2.16.24-.61.62-1.14,1.09-1.58-.28.16-.57.32-.85.5-.3.19-.56.43-.82.67-.47.45-.91.95-1.44,1.34-.6.43-1.32.63-2.03.75-.38.06-.77.11-1.15.16-.39.06-.76.15-1.15.19-.38.05-.78.06-1.16,0-.3-.05-.59-.14-.89-.17.02,0,.05.02.07.03.42.13.85.23,1.29.29.87.11,1.75.17,2.63.18.88.01,1.76-.02,2.64-.09.38-.03.77-.07,1.15-.11.02.29.09.57.2.85.06.15.14.29.23.43-.08-.42-.13-.84-.14-1.27Z"/>
              <path class="cls-4" d="M81.63,44.16c-.02-.67-.27-1.32-.55-1.93-.34-.72-.85-1.34-1.4-1.91-.27-.28-.56-.54-.84-.81-.3-.29-.58-.58-.89-.86-.31-.28-.65-.52-1.01-.71-.37-.2-.75-.36-1.14-.53-.74-.32-1.47-.73-2.27-.85-.29-.04-.56-.04-.84,0,.2.02.41.05.6.09.33.06.67.14.99.25.39.13.76.3,1.11.5.71.4,1.34.92,1.94,1.48.57.53,1.11,1.11,1.53,1.77.41.65.72,1.41.67,2.2-.02.32-.05.65-.1.97-.05.33-.13.65-.28.95-.07.14-.15.28-.26.4-.11.13-.24.23-.38.32-.33.21-.7.35-1.09.42-.4.07-.81.07-1.21.09-.47.02-.94.05-1.41.07-.93.05-1.87.08-2.8-.02-.1-.01-.2-.02-.3-.04-.07.01-.13.02-.2.04.27.05.53.1.79.15.44.08.87.16,1.31.2.45.05.91.07,1.37.07.8,0,1.59,0,2.39-.02.61,0,1.23-.03,1.83-.13.58-.09,1.17-.26,1.65-.6.23-.17.45-.38.59-.63.16-.29.21-.61.2-.93Z"/>
            </g>
            <path class="cls-5" d="M81.63,44.16c-.02-.67-.27-1.32-.55-1.93-.34-.72-.85-1.34-1.4-1.91-.27-.28-.56-.54-.84-.81-.3-.29-.58-.58-.89-.86-.31-.28-.65-.52-1.01-.71-.37-.2-.75-.36-1.14-.53-.74-.32-1.47-.73-2.27-.85-.36-.06-.71-.04-1.06.05-.4.05-.79.17-1.15.35-.2.1-.39.21-.57.33-.15-.29-.33-.57-.51-.84-.32-.47-.65-.92-1.05-1.33-.24-.25-.49-.47-.76-.69.05.1.1.2.15.3.1.21.2.43.28.65.09.28.14.58.15.88,0,.6-.21,1.16-.51,1.67-.3.5-.68.94-1.04,1.4-.36.44-.74.86-1.17,1.24-.43.38-.9.73-1.42.97-.24.11-.49.21-.75.24-.25.03-.5-.02-.73-.12-.49-.21-.88-.65-1.08-1.14-.21-.52-.24-1.08-.41-1.61-.03.1-.06.2-.07.3-.07.59.15,1.16.25,1.73.05.27.08.54.04.81-.03.22-.11.49-.28.65-.15.13-.35.18-.54.2-.23.02-.47,0-.7-.04-.23-.03-.46-.08-.69-.14-.22-.05-.43-.1-.65-.15-.57-.13-1.13-.29-1.66-.53-.52-.23-1.02-.53-1.4-.96-.21-.24-.38-.51-.43-.83-.05-.33.04-.65.18-.95.15-.31.36-.59.58-.85.22-.27.46-.53.7-.78.84-.87,1.8-1.65,2.89-2.2-.59.17-1.14.45-1.67.79-.84.53-1.6,1.18-2.44,1.71-.41.26-.84.49-1.29.67-.52.2-1.05.32-1.6.37-.56.06-1.14.05-1.69-.06-.48-.1-.92-.28-1.22-.68-.31-.41-.45-.98-.46-1.49,0-.61.19-1.19.24-1.8-.3.4-.52.86-.68,1.33-.17.5-.13,1.05-.32,1.55-.25.64-1.09.64-1.67.61-.76-.04-1.53-.14-2.26-.39-.36-.12-.71-.28-1.01-.5-.29-.21-.57-.47-.7-.81-.1-.26-.12-.53-.08-.8,0,.02-.01.04-.02.05-.09.28-.11.57-.08.86.06.55.33,1.04.73,1.41.43.4.97.63,1.53.79.64.18,1.3.27,1.97.3.67.03,1.34,0,2.01-.08.13-.02.27-.04.4-.06,0,0,0,0,0,0,.3.36.73.57,1.17.73.98.35,2.02.44,3.06.39.41-.02.81-.06,1.22-.12-.01.1-.02.21,0,.32.02.3.13.6.32.84.2.26.47.46.76.61.29.15.59.27.89.39.39.16.77.32,1.15.47.76.3,1.55.56,2.36.67.87.11,1.75.17,2.63.18.88.01,1.76-.02,2.64-.09.38-.03.77-.07,1.15-.11.02.29.09.57.2.85.22.53.6.96,1.1,1.23.5.27,1.07.4,1.63.49.3.05.6.09.9.14.44.07.87.15,1.3.23.44.08.87.16,1.31.2.45.05.91.07,1.37.07.8,0,1.59,0,2.39-.02.61,0,1.23-.03,1.83-.13.58-.09,1.17-.26,1.65-.6.23-.17.45-.38.59-.63.16-.29.21-.61.2-.93ZM78.37,43.27c0,.29,0,.57-.01.86-.01.25-.07.49-.25.67-.15.15-.36.25-.56.32-.22.08-.46.14-.69.18-.59.11-1.18.18-1.78.22-.69.04-1.38.02-2.08-.03-.68-.05-1.35-.15-2.02-.28-.51-.1-1.02-.21-1.53-.34-.42-.11-.86-.25-1.22-.51-.17-.12-.31-.27-.42-.44-.12-.21-.18-.46-.21-.7-.07-.53.01-1.07.19-1.57.12-.33.27-.64.45-.94.13-.45.37-.87.65-1.25.32-.43.7-.82,1.1-1.18.39-.35.81-.69,1.28-.93.5-.26,1.06-.38,1.62-.28.3.05.58.17.85.29.27.12.53.25.79.4.52.29,1.01.62,1.48.99.47.37.91.77,1.31,1.22.19.21.38.44.56.67.17.23.33.47.4.75.07.3.08.61.09.92,0,.32,0,.64-.01.96Z"/>
          </g>
          <g>
            <g>
              <path class="cls-8" d="M44.97,57.09c.14.25.35.46.59.63.48.34,1.07.5,1.65.6.61.1,1.22.12,1.83.13.8,0,1.59.03,2.39.02.46,0,.91-.02,1.37-.07.44-.05.88-.12,1.31-.2.43-.08.87-.16,1.3-.23.3-.05.6-.09.9-.14.56-.1,1.13-.22,1.63-.49.5-.27.88-.7,1.1-1.23.11-.28.18-.56.2-.85.38.04.77.08,1.15.11.88.07,1.76.1,2.64.09.88-.01,1.76-.07,2.63-.18.82-.11,1.6-.37,2.36-.67.39-.15.77-.31,1.15-.47.3-.12.6-.24.89-.39.29-.16.56-.35.76-.61.18-.24.3-.54.32-.84,0-.11,0-.21,0-.32.4.05.81.1,1.22.12,1.04.05,2.08-.04,3.06-.39.43-.15.87-.37,1.17-.73,0,0,0,0,0,0,.13.02.27.05.4.06.67.08,1.34.11,2.01.08.66-.03,1.33-.12,1.97-.3.56-.16,1.1-.39,1.53-.79.4-.37.67-.86.73-1.41.03-.29.01-.58-.08-.86-.09-.27-.25-.52-.44-.74-.4-.45-.92-.76-1.41-1.09-1.12-.75-2.19-1.61-3.45-2.13-.61-.25-1.27-.44-1.94-.42-.33.01-.67.09-.95.26-.02.01-.04.03-.06.04-.07-.14-.14-.28-.22-.41-.38-.66-.83-1.28-1.32-1.86-.24-.28-.49-.55-.78-.78-.3-.24-.65-.41-1.02-.51-.76-.22-1.56-.12-2.31.06-.76.19-1.51.44-2.22.76-.69.32-1.35.7-1.97,1.14-.31.22-.61.45-.91.69-.28.23-.56.47-.81.74-.48.52-.84,1.14-1.13,1.78-.04.09-.09.19-.13.29-.15-.1-.3-.18-.47-.25-1.12-.47-2.25.14-3.16.78-.45.31-.86.66-1.24,1.06-.4.41-.73.86-1.05,1.33-.18.27-.36.55-.51.84-.18-.12-.37-.23-.57-.33-.36-.18-.75-.3-1.15-.35-.35-.09-.7-.11-1.06-.05-.8.12-1.53.54-2.27.85-.38.16-.77.33-1.14.53-.37.2-.7.44-1.01.71-.31.27-.59.57-.89.86-.28.27-.56.54-.84.81-.55.57-1.07,1.18-1.4,1.91-.28.6-.53,1.26-.55,1.93,0,.32.05.65.2.93Z"/>
              <path class="cls-1" d="M59.08,53.91c-.24-.75-.66-1.43-1.1-2.08-.39-.58-.81-1.15-1.3-1.65-.29-.3-.59-.57-.93-.81.2-.4.47-.78.73-1.14.64-.87,1.44-1.6,2.35-2.19.47-.31.97-.59,1.52-.71.57-.12,1.14,0,1.62.31,0,0,0,0,0,0,.25.14.47.34.67.55.25.28.53.55.73.87.22.35.39.74.55,1.12.1.22.19.45.3.67-.18-.51-.39-1.01-.64-1.49-.34-.64-.8-1.29-1.4-1.73.39-.88.86-1.71,1.59-2.35,1.12-.97,2.36-1.81,3.74-2.37.34-.14.69-.26,1.05-.37.37-.12.75-.22,1.13-.3.76-.15,1.56-.16,2.28.17.64.3,1.11.87,1.54,1.42.34.44.67.89.95,1.37.2.24.32.52.42.81.29.65.5,1.34.64,2.03,0,.04.02.08.02.12.01.03.02.07.03.1.08.25.16.5.23.75-.01-.09-.02-.18-.03-.27-.05-.42-.13-.83-.23-1.23-.15-.59-.35-1.17-.61-1.72.02-.01.03-.02.05-.03.14-.09.3-.15.47-.19.33-.08.68-.08,1.02-.03.64.09,1.25.32,1.82.62,1.15.59,2.17,1.41,3.25,2.11.46.3.94.64,1.23,1.12.3.48.33,1.07.15,1.6-.37,1.12-1.56,1.59-2.62,1.81-1.22.25-2.45.22-3.68.1.15-.21.23-.44.31-.68-.08.12-.18.24-.28.34-.09.17-.21.33-.36.47-.35.3-.79.48-1.22.61-.49.15-.98.25-1.49.29-.83.07-1.66,0-2.48-.07-.09-.44-.33-.84-.59-1.19-.22-.28-.46-.53-.72-.76.04.05.07.11.11.16.09.13.18.25.28.37.17.2.33.41.47.64.09.15.17.32.22.49.06.16.1.33.1.51,0,.21-.02.42-.11.63-.26.6-.86.92-1.44,1.16-.7.29-1.4.59-2.12.84-.37.13-.75.24-1.13.33-.41.09-.82.14-1.24.18-.83.08-1.67.11-2.51.11-.84,0-1.68-.05-2.51-.13-.22-.02-.44-.04-.67-.07.01-.4-.05-.8-.18-1.2Z"/>
              <path class="cls-1" d="M45.16,55.17c.23-.68.55-1.31.98-1.88.47-.61,1.03-1.12,1.58-1.66.21-.2.42-.41.63-.61.17-.18.35-.36.54-.53.22-.19.46-.37.72-.49.07-.03.13-.06.2-.08,0-.01,0-.02.02-.03.82-.26,1.55-.73,2.37-.99.23-.07.46-.12.69-.15.01,0,.02,0,.02,0,.31-.05.62-.07.93-.04.06.01.11.03.17.04.02,0,.04,0,.05-.01.02,0,.04,0,.06,0,.42.08.81.24,1.17.45.11.05.21.1.3.17.07.05.13.1.18.16.56.43,1.05.97,1.48,1.51.44.57.85,1.18,1.2,1.81.36.66.65,1.4.64,2.17,0,.02,0,.04,0,.06,0,0,0,0-.01,0,0,.05,0,.1-.01.14,0,0,0,0,.01,0-.05.57-.29,1.14-.69,1.55-.38.39-.89.6-1.4.74-.56.15-1.13.22-1.7.31-.85.14-1.69.34-2.55.44-.88.1-1.77.08-2.66.07-.62,0-1.25,0-1.87-.03-.6-.03-1.21-.1-1.78-.28-.52-.17-1.07-.45-1.34-.95-.32-.58-.16-1.32.04-1.91Z"/>
              <path class="cls-3" d="M57.98,54.43c-.22-.3-.39-.63-.53-.98-.14-.34-.24-.69-.35-1.04-.09-.3-.2-.59-.32-.88.21.32.4.65.57,1,.29.6.49,1.24.63,1.9Z"/>
              <path class="cls-3" d="M80.3,46.01c.59.4,1.14.87,1.61,1.4-.34-.2-.69-.38-1.03-.58-.18-.11-.36-.23-.54-.35-.17-.13-.34-.27-.5-.4-.32-.26-.63-.51-.96-.76-.21-.16-.41-.31-.63-.45.01,0,.02.01.03.02.69.34,1.38.7,2.02,1.14Z"/>
              <path class="cls-3" d="M74.23,43.64c.3.52.52,1.09.72,1.65.21.58.38,1.17.56,1.75.17.55.34,1.11.37,1.68-.02-.03-.04-.05-.06-.08-.35-.47-.51-1.04-.76-1.56-.31-.66-.57-1.35-.82-2.04-.19-.53-.36-1.07-.55-1.6-.15-.42-.31-.84-.51-1.25.04.04.07.08.11.12.36.41.68.85.95,1.32Z"/>
              <path class="cls-3" d="M68.97,50.09c.49.43.91.95,1.2,1.53-.26-.23-.53-.45-.79-.68-.26-.22-.52-.45-.77-.69-.21-.21-.42-.43-.64-.63-.26-.25-.53-.47-.83-.66,0,0,.01,0,.02,0,.65.29,1.28.65,1.82,1.12Z"/>
              <path class="cls-3" d="M63.88,49.63c-.22-.26-.4-.55-.55-.85-.08-.15-.15-.31-.22-.47-.05-.13-.11-.26-.15-.4-.05-.17-.06-.35-.09-.53l-.02-.14c.24.34.46.7.64,1.08.19.41.34.85.38,1.3Z"/>
            </g>
            <path class="cls-4" d="M44.97,57.09c.14.25.35.46.59.63.48.34,1.07.5,1.65.6.61.1,1.22.12,1.83.13.8,0,1.59.03,2.39.02.46,0,.91-.02,1.37-.07.44-.05.88-.12,1.31-.2.43-.08.87-.16,1.3-.23.3-.05.6-.09.9-.14.56-.1,1.13-.22,1.63-.49.5-.27.88-.7,1.1-1.23.11-.28.18-.56.2-.85.38.04.77.08,1.15.11.88.07,1.76.1,2.64.09.88-.01,1.76-.07,2.63-.18.82-.11,1.6-.37,2.36-.67.39-.15.77-.31,1.15-.47.3-.12.6-.24.89-.39.29-.16.56-.35.76-.61.18-.24.3-.54.32-.84,0-.11,0-.21,0-.32.4.05.81.1,1.22.12,1.04.05,2.08-.04,3.06-.39.43-.15.87-.37,1.17-.73,0,0,0,0,0,0,.13.02.27.05.4.06.67.08,1.34.11,2.01.08.66-.03,1.33-.12,1.97-.3.56-.16,1.1-.39,1.53-.79.4-.37.67-.86.73-1.41.03-.29.01-.58-.08-.86-.09-.27-.25-.52-.44-.74-.4-.45-.92-.76-1.41-1.09-1.12-.75-2.19-1.61-3.45-2.13-.61-.25-1.27-.44-1.94-.42-.33.01-.67.09-.95.26-.02.01-.04.03-.06.04-.07-.14-.14-.28-.22-.41-.38-.66-.83-1.28-1.32-1.86-.24-.28-.49-.55-.78-.78-.3-.24-.65-.41-1.02-.51-.76-.22-1.56-.12-2.31.06-.76.19-1.51.44-2.22.76-.69.32-1.35.7-1.97,1.14-.31.22-.61.45-.91.69-.28.23-.56.47-.81.74-.48.52-.84,1.14-1.13,1.78-.04.09-.09.19-.13.29-.15-.1-.3-.18-.47-.25-1.12-.47-2.25.14-3.16.78-.45.31-.86.66-1.24,1.06-.4.41-.73.86-1.05,1.33-.18.27-.36.55-.51.84-.18-.12-.37-.23-.57-.33-.36-.18-.75-.3-1.15-.35-.35-.09-.7-.11-1.06-.05-.8.12-1.53.54-2.27.85-.38.16-.77.33-1.14.53-.37.2-.7.44-1.01.71-.31.27-.59.57-.89.86-.28.27-.56.54-.84.81-.55.57-1.07,1.18-1.4,1.91-.28.6-.53,1.26-.55,1.93,0,.32.05.65.2.93ZM76.45,45.64c-.15-.39-.27-.79-.4-1.18-.04-.11-.08-.24-.08-.36,0-.08.03-.15.1-.18.09-.04.21-.03.31-.01.17.03.34.07.51.12.35.1.7.22,1.04.37.25.11.48.23.71.37.19.09.38.18.57.27.39.2.78.42,1.14.66.27.18.52.39.77.58.23.18.47.36.68.57.2.19.4.41.5.67.09.23.08.48-.07.68-.22.31-.53.55-.85.75-.33.2-.69.38-1.07.48-.34.09-.69.09-1.02-.02-.33-.12-.62-.33-.87-.57-.3-.29-.56-.62-.8-.95-.49-.69-.88-1.45-1.18-2.24ZM70.15,48.54c-.44-.22-.87-.48-1.21-.83-.17-.18-.31-.38-.42-.6-.1-.22-.16-.46-.21-.69-.1-.47-.14-.96-.13-1.45,0-.49.07-.98.19-1.46.12-.47.29-.93.52-1.35.23-.42.52-.81.87-1.14.37-.35.87-.71,1.41-.66.25.02.49.15.7.28.21.13.41.29.58.46.02.02.04.04.05.06.18.13.36.27.52.42.34.31.64.67.9,1.06.27.39.51.81.71,1.24.2.42.38.85.54,1.29.17.49.33.98.46,1.48.09.31.16.63.23.95.03.15.05.29.09.44.02.11.05.23.07.34.05.24.09.48.06.72-.02.18-.1.33-.25.44-.14.1-.32.16-.49.19-.19.03-.39.04-.59.04-.17,0-.34-.02-.5-.03-.26-.03-.53-.05-.79-.09-.59-.09-1.17-.24-1.73-.42-.28-.09-.55-.2-.83-.31-.26-.11-.52-.24-.77-.37ZM64.95,48c.07-.05.16-.05.24-.04.26.02.52.13.76.23.28.11.55.24.82.37.1.05.19.09.29.14.13.06.26.11.4.18.26.12.51.26.76.41.08.04.16.08.23.13.39.23.74.5,1.07.81.14.13.28.28.41.43.13.15.25.32.34.5.08.17.13.35.1.54-.03.18-.13.35-.23.5-.22.33-.53.59-.85.82-.32.23-.67.42-1.03.6-.27.13-.55.25-.84.36-.32.11-.64.21-.98.25-.31.04-.64.03-.92-.12-.13-.07-.25-.17-.33-.3-.1-.14-.15-.31-.19-.48-.09-.39-.09-.8-.08-1.2.02-.4.06-.8.07-1.2,0-.21,0-.43,0-.64,0-.28-.01-.55-.03-.83-.01-.21-.02-.43-.05-.64-.02-.16-.05-.31-.06-.47,0-.11,0-.28.09-.35ZM59.13,47.69c.15-.28.36-.54.57-.78.21-.23.43-.45.67-.64.38-.28.86-.48,1.33-.34.36.1.64.36.85.66.3.3.58.64.81,1,.34.52.6,1.11.73,1.72.06.29.09.6.07.9-.01.19-.01.44-.19.56-.15.1-.38.05-.55.02-.17-.03-.34-.06-.5-.09-.18-.04-.35-.09-.53-.14-.68-.21-1.33-.5-1.96-.82-.41-.21-.86-.4-1.19-.74-.15-.15-.27-.34-.3-.55-.04-.26.07-.54.19-.77ZM50.95,53.78c.05-.36.13-.71.23-1.06.1-.35.23-.69.37-1.03.13-.32.29-.63.45-.93.14-.26.3-.51.48-.74.28-.37.66-.71,1.12-.82.36-.09.72-.02,1.05.12.46.16.89.4,1.27.7.4.31.77.67,1.08,1.06.32.4.59.83.82,1.29.22.45.39.92.5,1.4.1.43.14.89-.08,1.3-.21.4-.62.65-1,.87-.47.26-.96.46-1.48.61-.53.15-1.07.25-1.61.29-.52.03-1.05.01-1.57-.09-.33-.07-.65-.19-.93-.39-.23-.18-.42-.41-.54-.67-.13-.28-.2-.58-.22-.88-.03-.34-.01-.68.03-1.01Z"/>
            <g>
              <path class="cls-4" d="M75.64,43.76c-.01.15,0,.3.03.45.03.23.06.45.09.68.1.84.17,1.69.08,2.53-.1-.45-.16-.9-.22-1.35-.07-.45-.15-.9-.29-1.34-.07-.2-.14-.41-.22-.61-.06-.16-.12-.32-.18-.48.01,0,.02-.01.03-.02.24-.14.51-.22.79-.25-.07.12-.1.26-.11.4Z"/>
              <path class="cls-4" d="M71.5,40.07c-.5-.09-1.01-.06-1.5.04-.51.11-1.01.31-1.47.57-.47.26-.89.58-1.32.9-.81.6-1.66,1.18-2.32,1.96-.31.37-.59.79-.73,1.25-.15.49-.14,1-.09,1.5.09.97.35,2,0,2.94-.09-.39-.23-.76-.41-1.12-.05-.13-.1-.26-.15-.39-.19-.47-.44-.91-.75-1.32-.33-.43-.72-.82-1.19-1.1-.06-.03-.11-.07-.17-.09.07.02.14.05.2.07.16.07.32.16.47.25.04-.1.08-.19.13-.29.29-.64.65-1.26,1.13-1.78.25-.27.53-.5.81-.74.29-.24.6-.47.91-.69.62-.44,1.28-.82,1.97-1.14.71-.33,1.47-.57,2.22-.76.75-.19,1.54-.28,2.29-.07-.01,0-.03,0-.04,0Z"/>
              <path class="cls-4" d="M58.97,55.26c.02-.73-.07-1.48-.34-2.16-.24-.61-.62-1.14-1.09-1.58.28.16.57.32.85.5.3.19.56.43.82.67.47.45.91.95,1.44,1.34.6.43,1.32.63,2.03.75.38.06.77.11,1.15.16.39.06.76.15,1.15.19.38.05.78.06,1.16,0,.3-.05.59-.14.89-.17-.02,0-.05.02-.07.03-.42.13-.85.23-1.29.29-.87.11-1.75.17-2.63.18-.88.01-1.76-.02-2.64-.09-.38-.03-.77-.07-1.15-.11-.02.29-.09.57-.2.85-.06.15-.14.29-.22.43.08-.42.13-.84.14-1.27Z"/>
              <path class="cls-4" d="M44.77,56.16c.02-.67.27-1.32.55-1.93.34-.72.85-1.34,1.4-1.91.27-.28.56-.54.84-.81.3-.29.58-.58.89-.86.31-.28.65-.52,1.01-.71.37-.2.75-.36,1.14-.53.74-.32,1.47-.73,2.27-.85.29-.04.56-.04.84,0-.2.02-.41.05-.6.09-.33.06-.67.14-.99.25-.39.13-.76.3-1.11.5-.71.4-1.34.92-1.94,1.48-.57.53-1.11,1.11-1.53,1.77-.41.65-.72,1.41-.67,2.2.02.32.05.65.11.97.05.33.13.65.28.95.07.14.15.28.26.4.11.13.24.23.38.32.33.21.7.35,1.09.42.4.07.81.07,1.21.09.47.02.94.05,1.41.07.93.05,1.87.08,2.8-.02.1-.01.2-.02.3-.04.07.01.13.02.2.04-.27.05-.53.1-.79.15-.44.08-.87.16-1.31.2-.45.05-.91.07-1.37.07-.8,0-1.59,0-2.39-.02-.61,0-1.23-.03-1.83-.13-.58-.09-1.17-.26-1.65-.6-.23-.17-.45-.38-.59-.63-.16-.29-.21-.61-.2-.93Z"/>
            </g>
            <path class="cls-5" d="M44.97,57.09c.14.25.35.46.59.63.48.34,1.07.5,1.65.6.61.1,1.22.12,1.83.13.8,0,1.59.03,2.39.02.46,0,.91-.02,1.37-.07.44-.05.88-.12,1.31-.2.43-.08.87-.16,1.3-.23.3-.05.6-.09.9-.14.56-.1,1.13-.22,1.63-.49.5-.27.88-.7,1.1-1.23.11-.28.18-.56.2-.85.38.04.77.08,1.15.11.88.07,1.76.1,2.64.09.88-.01,1.76-.07,2.63-.18.82-.11,1.6-.37,2.36-.67.39-.15.77-.31,1.15-.47.3-.12.6-.24.89-.39.29-.16.56-.35.76-.61.18-.24.3-.54.32-.84,0-.11,0-.21,0-.32.4.05.81.1,1.22.12,1.04.05,2.08-.04,3.06-.39.43-.15.87-.37,1.17-.73,0,0,0,0,0,0,.13.02.27.05.4.06.67.08,1.34.11,2.01.08.66-.03,1.33-.12,1.97-.3.56-.16,1.1-.39,1.53-.79.4-.37.67-.86.73-1.41.03-.29.01-.58-.08-.86,0-.02-.01-.04-.02-.05.04.27.02.54-.08.8-.13.34-.41.6-.7.81-.31.22-.66.38-1.01.5-.72.25-1.5.35-2.26.39-.57.03-1.42.03-1.67-.61-.19-.49-.15-1.04-.32-1.55-.16-.47-.38-.93-.68-1.33.06.6.25,1.19.24,1.8,0,.51-.14,1.07-.46,1.49-.3.4-.74.58-1.22.68-.55.11-1.13.12-1.69.06-.55-.05-1.09-.17-1.6-.37-.45-.17-.88-.41-1.29-.67-.84-.53-1.6-1.17-2.44-1.71-.52-.33-1.08-.62-1.67-.79,1.08.55,2.04,1.33,2.88,2.2.24.25.48.51.7.78.22.26.43.54.58.85.14.29.23.62.18.95-.05.32-.22.59-.43.83-.38.43-.88.74-1.4.96-.53.23-1.09.4-1.66.53-.22.05-.43.1-.65.15-.23.05-.46.1-.69.14-.23.03-.47.06-.7.04-.19-.02-.4-.07-.54-.2-.17-.16-.25-.43-.28-.65-.04-.27,0-.54.04-.81.11-.57.32-1.14.25-1.73-.01-.1-.03-.2-.07-.3-.18.53-.2,1.09-.41,1.61-.2.49-.59.93-1.08,1.14-.23.1-.48.14-.73.12-.26-.03-.51-.13-.75-.24-.52-.24-.99-.59-1.42-.97-.42-.38-.81-.8-1.17-1.24-.37-.45-.74-.89-1.04-1.4-.3-.51-.51-1.07-.51-1.67,0-.3.05-.6.15-.88.07-.22.17-.44.28-.65.05-.1.1-.2.15-.3-.27.21-.52.44-.76.69-.4.41-.73.86-1.05,1.33-.18.27-.36.55-.51.84-.18-.12-.37-.23-.57-.33-.36-.18-.75-.3-1.15-.35-.35-.09-.7-.11-1.06-.05-.8.12-1.53.54-2.27.85-.38.16-.77.33-1.14.53-.37.2-.7.44-1.01.71-.31.27-.59.57-.89.86-.28.27-.56.54-.84.81-.55.57-1.07,1.18-1.4,1.91-.28.6-.53,1.26-.55,1.93,0,.32.05.65.2.93ZM48.02,54.31c0-.3.02-.62.09-.92.07-.28.23-.53.4-.75.18-.23.36-.45.56-.67.4-.44.84-.85,1.31-1.22.47-.37.96-.7,1.48-.99.26-.14.52-.28.79-.4.28-.12.55-.24.85-.29.56-.1,1.12.02,1.62.28.47.24.89.58,1.28.93.4.36.78.75,1.1,1.18.28.38.52.8.65,1.25.18.3.33.61.45.94.18.5.27,1.04.19,1.57-.03.24-.09.49-.21.7-.1.18-.25.32-.42.44-.36.26-.8.4-1.22.51-.51.13-1.02.24-1.53.34-.67.13-1.34.22-2.02.28-.69.06-1.38.08-2.08.03-.6-.04-1.19-.1-1.78-.22-.23-.04-.47-.1-.69-.18-.2-.07-.4-.17-.56-.32-.18-.18-.24-.42-.25-.67-.01-.29,0-.57-.01-.86,0-.32-.02-.64-.01-.96Z"/>
          </g>
          <g>
            <g>
              <path class="cls-8" d="M50.43,57.12c-.09-.45-.28-.88-.5-1.28-.21-.38-.45-.74-.72-1.08-.7-.87-1.69-1.46-2.77-1.74-1.08-.29-2.23-.29-3.32-.07-1.21.25-2.36.8-3.39,1.47-.56.36-1.09.77-1.57,1.24-.39.38-.76.81-1.06,1.26-.28.42-.56.95-.43,1.47.11.49.57.84.99,1.07.47.25.99.41,1.51.53.63.14,1.27.24,1.91.32.77.09,1.55.14,2.33.12.74-.02,1.48-.1,2.21-.21.73-.11,1.46-.26,2.17-.46.29-.09.58-.19.88-.28.28-.09.56-.19.83-.31.24-.11.47-.25.65-.44.04-.04.03-.08,0-.1.08-.09.15-.2.2-.31.17-.38.16-.8.08-1.2Z"/>
              <path class="cls-1" d="M49.95,58.74s-.05.04-.07.06c-.15.11-.33.2-.5.27-.26.11-.52.2-.79.29-.63.21-1.26.4-1.91.53-1.43.3-2.89.45-4.34.37-.75-.04-1.5-.13-2.24-.26-.51-.09-1.01-.18-1.5-.34-.48-.16-.98-.37-1.36-.72-.17-.16-.33-.36-.39-.59-.07-.24-.03-.49.05-.72.17-.5.52-.93.86-1.33.38-.45.8-.86,1.26-1.22.51-.41,1.07-.77,1.65-1.08.52-.28,1.07-.54,1.64-.72,1.03-.33,2.13-.44,3.21-.3,1.06.14,2.1.55,2.93,1.24.36.31.67.67.94,1.06.25.36.48.75.65,1.16.3.71.54,1.68-.09,2.29Z"/>
              <path class="cls-3" d="M39.47,55.44c-.42.41-.79.88-1.05,1.41.23-.15.43-.32.63-.5.21-.19.41-.4.61-.6.2-.2.4-.39.6-.58.29-.28.56-.58.78-.92,0,0-.01,0-.02,0-.56.33-1.09.72-1.56,1.18Z"/>
              <path class="cls-5" d="M50.04,56.45c-.17-.41-.4-.79-.65-1.16-.27-.39-.58-.76-.94-1.06-.82-.7-1.86-1.1-2.93-1.24-.91-.12-1.83-.06-2.72.16.06,0,.12,0,.19.01.39.04.77.13,1.12.31.34.18.62.43.85.75.23.32.39.68.53,1.05.07.18.12.37.18.56.05.18.09.36.14.54.1.37.19.74.19,1.12,0,.37-.09.76-.37,1.01-.27.24-.63.36-.98.44-.34.07-.7.11-1.05.14-1.03.1-2.08.08-3.09-.1-.39-.07-.78-.17-1.16-.29-.33-.1-.67-.22-.97-.4-.26-.16-.51-.37-.58-.68-.08-.32.04-.66.18-.95.17-.33.39-.62.63-.9.24-.28.49-.55.75-.8.16-.15.32-.3.48-.44-.27.18-.54.37-.79.57-.46.37-.88.78-1.26,1.22-.34.4-.69.83-.86,1.33-.08.23-.11.48-.05.72.06.23.22.43.39.59.38.35.87.56,1.36.72.49.16,1,.26,1.5.34.74.12,1.49.22,2.24.26,1.46.08,2.92-.08,4.34-.37.65-.14,1.28-.33,1.91-.53.27-.09.53-.18.79-.29.17-.07.34-.16.5-.27.02-.02.05-.04.07-.06.63-.61.4-1.58.09-2.29Z"/>
              <path class="cls-5" d="M50.04,56.45c-.17-.41-.4-.79-.65-1.16-.27-.39-.58-.76-.94-1.06-.59-.5-1.28-.85-2.02-1.06.22.29.42.6.59.92.44.81.77,1.7.93,2.61.07.37.14.76-.02,1.12-.15.33-.45.57-.77.74-.66.36-1.42.5-2.15.65-.48.1-.97.17-1.47.23-.64.08-1.28.12-1.92.14-.67.01-1.34-.01-2-.11-.58-.09-1.16-.23-1.68-.51-.43-.24-.81-.59-.98-1.06-.03-.08-.05-.16-.07-.24-.08.23-.11.47-.04.71.06.23.22.43.39.59.38.35.87.56,1.36.72.49.16,1,.26,1.5.34.74.12,1.49.22,2.24.26,1.46.08,2.92-.08,4.34-.37.65-.14,1.28-.33,1.91-.53.27-.09.53-.18.79-.29.17-.07.34-.16.5-.27.02-.02.05-.04.07-.06.63-.61.4-1.58.09-2.29Z"/>
            </g>
            <g>
              <path class="cls-8" d="M79.5,52.81c-.07-.33-.2-.64-.36-.93-.15-.27-.33-.54-.52-.78-.51-.63-1.23-1.06-2.01-1.26-.78-.21-1.61-.21-2.4-.05-.88.18-1.71.58-2.46,1.07-.41.26-.79.56-1.14.9-.28.28-.55.59-.77.91-.21.3-.4.69-.31,1.07.08.36.41.61.72.78.34.18.72.3,1.1.39.46.1.92.17,1.39.23.56.07,1.13.1,1.69.09.54-.01,1.07-.07,1.6-.15.53-.08,1.06-.19,1.57-.34.21-.06.42-.14.64-.21.2-.07.41-.13.6-.22.17-.08.34-.18.47-.32.03-.03.02-.06,0-.07.06-.07.11-.14.14-.23.12-.27.12-.58.06-.87Z"/>
              <path class="cls-1" d="M79.15,53.98s-.03.03-.05.05c-.11.08-.24.14-.36.2-.19.08-.38.15-.57.21-.46.15-.91.29-1.38.39-1.03.22-2.09.33-3.15.27-.54-.03-1.09-.1-1.62-.19-.37-.06-.73-.13-1.09-.25-.35-.11-.71-.27-.98-.52-.12-.11-.24-.26-.28-.42-.05-.17-.02-.35.03-.52.12-.36.38-.68.62-.96.28-.32.58-.62.91-.89.37-.3.77-.56,1.19-.78.38-.21.78-.39,1.19-.52.75-.24,1.55-.32,2.33-.22.77.1,1.52.4,2.12.9.26.22.49.49.68.77.18.26.35.54.47.84.22.51.39,1.22-.07,1.66Z"/>
              <path class="cls-3" d="M71.55,51.59c-.31.3-.57.64-.76,1.03.16-.11.32-.23.46-.37.15-.14.3-.29.44-.43.14-.14.29-.28.43-.42.21-.2.41-.42.57-.67,0,0,0,0-.01,0-.41.24-.79.52-1.13.85Z"/>
              <path class="cls-5" d="M79.22,52.32c-.13-.3-.29-.58-.47-.84-.2-.28-.42-.55-.68-.77-.6-.51-1.35-.8-2.12-.9-.66-.09-1.33-.04-1.97.12.05,0,.09,0,.14,0,.28.03.56.1.81.23.25.13.45.32.61.54.17.23.29.49.38.76.05.13.09.27.13.4.04.13.06.26.1.39.07.27.14.54.14.81,0,.27-.06.55-.27.73-.2.18-.46.26-.71.32-.25.05-.51.08-.76.1-.75.08-1.5.06-2.24-.08-.28-.05-.56-.12-.84-.21-.24-.07-.48-.16-.7-.29-.19-.11-.37-.27-.42-.49-.05-.24.03-.48.13-.69.12-.24.28-.45.45-.65.17-.2.35-.4.54-.58.11-.11.23-.22.35-.32-.2.13-.39.27-.58.41-.34.27-.63.56-.91.89-.25.29-.5.6-.62.96-.06.17-.08.35-.03.52.05.16.16.31.28.42.27.25.63.41.98.52.36.11.72.19,1.09.25.54.09,1.08.16,1.62.19,1.06.06,2.12-.05,3.15-.27.47-.1.93-.24,1.38-.39.19-.06.39-.13.57-.21.12-.05.25-.12.36-.2.02-.01.04-.03.05-.05.46-.44.29-1.15.07-1.66Z"/>
              <path class="cls-5" d="M79.22,52.32c-.13-.3-.29-.58-.47-.84-.2-.28-.42-.55-.68-.77-.43-.36-.93-.61-1.47-.77.16.21.31.44.43.67.32.59.56,1.24.68,1.9.05.27.1.55-.02.81-.11.24-.33.42-.56.54-.48.26-1.03.36-1.56.47-.35.07-.71.13-1.06.17-.46.05-.93.09-1.39.1-.48,0-.97,0-1.45-.08-.42-.06-.84-.16-1.22-.37-.32-.17-.59-.43-.71-.77-.02-.06-.04-.12-.05-.18-.06.17-.08.34-.03.51.05.16.16.31.28.42.27.25.63.41.98.52.36.11.72.19,1.09.25.54.09,1.08.16,1.62.19,1.06.06,2.12-.05,3.15-.27.47-.1.93-.24,1.38-.39.19-.06.39-.13.57-.21.12-.05.25-.12.36-.2.02-.01.04-.03.05-.05.46-.44.29-1.15.07-1.66Z"/>
            </g>
            <g>
              <g>
                <path class="cls-8" d="M30.52,55.18c-.07-.33-.2-.64-.36-.93-.15-.27-.33-.54-.52-.78-.51-.63-1.23-1.06-2.01-1.26-.78-.21-1.61-.21-2.4-.05-.88.18-1.71.58-2.46,1.07-.41.26-.79.56-1.14.9-.28.28-.55.59-.77.91-.21.3-.4.69-.31,1.07.08.36.41.61.72.78.34.18.72.3,1.1.39.46.1.92.17,1.39.23.56.07,1.13.1,1.69.09.54-.01,1.07-.07,1.6-.15.53-.08,1.06-.19,1.57-.34.21-.06.42-.14.64-.21.2-.07.41-.14.6-.22.17-.08.34-.18.47-.32.03-.03.02-.06,0-.07.06-.07.11-.14.14-.23.12-.27.12-.58.06-.87Z"/>
                <path class="cls-1" d="M30.17,56.36s-.03.03-.05.05c-.11.08-.24.14-.36.2-.19.08-.38.15-.57.21-.46.15-.91.29-1.38.39-1.03.22-2.09.33-3.15.27-.54-.03-1.09-.1-1.62-.19-.37-.06-.73-.13-1.09-.25-.35-.11-.71-.27-.98-.52-.12-.11-.24-.26-.28-.42-.05-.17-.02-.35.03-.52.12-.36.38-.68.62-.96.28-.32.58-.62.91-.89.37-.3.77-.56,1.19-.78.38-.21.78-.39,1.19-.53.75-.24,1.55-.32,2.33-.22.77.1,1.52.4,2.12.9.26.22.49.49.68.77.18.26.35.54.47.84.22.51.39,1.22-.07,1.66Z"/>
                <path class="cls-3" d="M22.57,53.97c-.31.3-.57.64-.76,1.03.16-.11.31-.23.46-.36.15-.14.3-.29.44-.43.14-.14.29-.28.43-.42.21-.2.41-.42.57-.67,0,0,0,0-.01,0-.41.24-.79.52-1.13.85Z"/>
                <path class="cls-5" d="M30.23,54.69c-.13-.3-.29-.58-.47-.84-.2-.28-.42-.55-.68-.77-.6-.51-1.35-.8-2.12-.9-.66-.09-1.33-.04-1.97.12.05,0,.09,0,.14,0,.28.03.56.1.81.23.25.13.45.32.61.54.17.23.29.49.38.76.05.13.09.27.13.4.04.13.06.26.1.39.07.27.14.54.14.81,0,.27-.06.55-.27.73-.2.18-.46.26-.71.32-.25.05-.51.08-.76.1-.75.08-1.5.06-2.24-.08-.28-.05-.56-.12-.84-.21-.24-.07-.48-.16-.7-.29-.19-.11-.37-.27-.42-.49-.05-.24.03-.48.13-.69.12-.24.28-.45.45-.65.17-.2.35-.4.54-.58.11-.11.23-.22.35-.32-.2.13-.39.27-.58.41-.34.27-.64.56-.91.89-.25.29-.5.6-.62.96-.06.17-.08.35-.03.52.05.17.16.31.28.42.27.25.63.41.98.52.36.11.72.19,1.09.25.54.09,1.08.16,1.62.19,1.06.06,2.12-.05,3.15-.27.47-.1.92-.24,1.38-.39.19-.06.39-.13.57-.21.12-.05.25-.12.36-.2.02-.01.04-.03.05-.05.46-.44.29-1.15.07-1.66Z"/>
                <path class="cls-5" d="M30.23,54.69c-.13-.3-.29-.58-.47-.84-.2-.28-.42-.55-.68-.77-.43-.36-.93-.61-1.47-.77.16.21.3.44.43.67.32.59.56,1.24.68,1.9.05.27.1.55-.02.81-.11.24-.33.42-.56.54-.48.26-1.03.36-1.56.47-.35.07-.71.13-1.06.17-.46.05-.93.09-1.39.1-.49,0-.97,0-1.45-.08-.42-.06-.84-.16-1.22-.37-.32-.17-.59-.43-.71-.77-.02-.06-.04-.12-.05-.18-.05.17-.08.34-.03.51.05.17.16.31.28.42.27.25.63.41.98.52.36.11.72.19,1.09.25.54.09,1.08.16,1.62.19,1.06.06,2.12-.05,3.15-.27.47-.1.92-.24,1.38-.39.19-.06.39-.13.57-.21.12-.05.25-.12.36-.2.02-.01.04-.03.05-.05.46-.44.29-1.15.07-1.66Z"/>
              </g>
              <g>
                <path class="cls-8" d="M34.44,57.47c-.05-.24-.15-.48-.27-.69-.11-.21-.24-.4-.39-.58-.38-.47-.92-.79-1.5-.95-.59-.16-1.21-.16-1.8-.04-.66.13-1.28.44-1.84.8-.3.2-.59.42-.85.67-.21.21-.41.44-.58.68-.15.23-.3.52-.24.8.06.27.31.46.54.58.26.14.54.22.82.29.34.08.69.13,1.04.17.42.05.84.08,1.27.07.4,0,.8-.05,1.2-.11.4-.06.79-.14,1.18-.25.16-.05.32-.1.48-.15.15-.05.3-.1.45-.17.13-.06.26-.13.35-.24.02-.02.02-.04,0-.05.04-.05.08-.11.11-.17.09-.2.09-.44.04-.65Z"/>
                <path class="cls-1" d="M34.18,58.34s-.03.02-.04.03c-.08.06-.18.11-.27.15-.14.06-.28.11-.43.16-.34.11-.68.22-1.03.29-.77.16-1.57.24-2.36.2-.41-.02-.81-.07-1.22-.14-.28-.05-.55-.1-.82-.19-.26-.08-.53-.2-.74-.39-.09-.09-.18-.19-.21-.32-.04-.13-.02-.27.02-.39.09-.27.28-.51.47-.72.21-.24.43-.47.68-.66.28-.22.58-.42.89-.59.28-.15.58-.29.89-.39.56-.18,1.16-.24,1.74-.16.58.08,1.14.3,1.59.68.2.17.37.37.51.58.14.2.26.41.35.63.16.38.29.92-.05,1.24Z"/>
                <path class="cls-3" d="M28.49,56.55c-.23.22-.43.48-.57.77.12-.08.24-.17.34-.27.11-.1.22-.21.33-.32.11-.11.22-.21.32-.31.16-.15.31-.32.42-.5,0,0,0,0,0,0-.31.18-.59.39-.85.64Z"/>
                <path class="cls-5" d="M34.23,57.1c-.09-.22-.22-.43-.35-.63-.15-.21-.32-.41-.51-.58-.45-.38-1.01-.6-1.59-.68-.49-.06-1-.03-1.48.09.03,0,.07,0,.1,0,.21.02.42.07.61.17.19.1.34.24.46.41.12.17.21.37.29.57.04.1.07.2.09.3.03.1.05.2.07.29.05.2.1.4.1.61,0,.2-.05.41-.2.55-.15.13-.34.2-.53.24-.19.04-.38.06-.57.08-.56.06-1.13.04-1.68-.06-.21-.04-.42-.09-.63-.16-.18-.06-.36-.12-.52-.22-.14-.08-.28-.2-.32-.37-.04-.18.02-.36.1-.52.09-.18.21-.34.34-.49.13-.15.27-.3.41-.44.08-.08.17-.16.26-.24-.15.1-.29.2-.43.31-.25.2-.48.42-.68.66-.19.22-.38.45-.47.72-.04.13-.06.26-.02.39.03.12.12.23.21.32.21.19.47.3.74.39.27.09.54.14.82.19.4.07.81.12,1.22.14.79.04,1.58-.04,2.36-.2.35-.07.69-.18,1.03-.29.14-.05.29-.1.43-.16.09-.04.19-.09.27-.15.01-.01.03-.02.04-.03.34-.33.21-.86.05-1.24Z"/>
                <path class="cls-5" d="M34.23,57.1c-.09-.22-.22-.43-.35-.63-.15-.21-.32-.41-.51-.58-.32-.27-.7-.46-1.1-.57.12.16.23.33.32.5.24.44.42.93.51,1.42.04.2.08.41-.01.61-.08.18-.25.31-.42.4-.36.19-.77.27-1.17.35-.26.05-.53.09-.8.13-.35.04-.69.07-1.04.07-.36,0-.73,0-1.09-.06-.31-.05-.63-.12-.91-.28-.24-.13-.44-.32-.53-.58-.02-.04-.03-.09-.04-.13-.04.12-.06.26-.02.38.03.12.12.23.21.32.21.19.47.3.74.39.27.09.54.14.82.19.4.07.81.12,1.22.14.79.04,1.58-.04,2.36-.2.35-.07.69-.18,1.03-.29.14-.05.29-.1.43-.16.09-.04.19-.09.27-.15.01-.01.03-.02.04-.03.34-.33.21-.86.05-1.24Z"/>
              </g>
            </g>
          </g>
        </g>
      </g>
    </g>
  </g>
</svg>